STARTFONT 2.1
COMMENT
COMMENT Converted from OpenType font "RozhaOne-Regular.ttf" by "otf2bdf 3.0".
COMMENT
FONT -FreeType-Rozha One-Medium-R-Normal--29-210-100-100-P-145-ISO10646-1
SIZE 21 100 100
FONTBOUNDINGBOX 45 38 -15 -12
STARTPROPERTIES 19
FOUNDRY "FreeType"
FAMILY_NAME "Rozha One"
WEIGHT_NAME "Medium"
SLANT "R"
SETWIDTH_NAME "Normal"
ADD_STYLE_NAME ""
PIXEL_SIZE 29
POINT_SIZE 210
RESOLUTION_X 100
RESOLUTION_Y 100
SPACING "P"
AVERAGE_WIDTH 145
CHARSET_REGISTRY "ISO10646"
CHARSET_ENCODING "1"
FONT_ASCENT 28
FONT_DESCENT 12
COPYRIGHT "Copyright (c) 2014 Indian Type Foundry (info@indiantypefoundry.com)"
_OTF_FONTFILE "RozhaOne-Regular.ttf"
_OTF_PSNAME "RozhaOne-Regular"
ENDPROPERTIES
CHARS 481
STARTCHAR 0000
ENCODING 0
SWIDTH 0 0
DWIDTH 0 0
BBX 0 0 0 0
BITMAP
ENDCHAR
STARTCHAR 000D
ENCODING 13
SWIDTH 0 0
DWIDTH 0 0
BBX 0 0 0 0
BITMAP
ENDCHAR
STARTCHAR 0020
ENCODING 32
SWIDTH 205 0
DWIDTH 6 0
BBX 0 0 0 0
BITMAP
ENDCHAR
STARTCHAR 0021
ENCODING 33
SWIDTH 308 0
DWIDTH 9 0
BBX 7 17 1 0
BITMAP
3C
7C
FE
FE
7C
7C
38
38
10
10
00
00
3C
7C
7C
7C
38
ENDCHAR
STARTCHAR 0022
ENCODING 34
SWIDTH 274 0
DWIDTH 8 0
BBX 7 8 0 13
BITMAP
66
EE
EE
66
66
66
44
44
ENDCHAR
STARTCHAR 0023
ENCODING 35
SWIDTH 514 0
DWIDTH 15 0
BBX 13 17 1 0
BITMAP
0210
0410
0420
0420
0820
7FF8
0840
1040
1040
1080
1080
FFF0
2080
2100
4100
4100
4200
ENDCHAR
STARTCHAR 0024
ENCODING 36
SWIDTH 548 0
DWIDTH 16 0
BBX 14 21 1 -1
BITMAP
0100
0100
0100
0F88
3170
3110
7110
7908
7D00
7F80
7FE0
3FF0
0FF8
83FC
81FC
C13C
C138
E138
F930
87E0
0100
ENDCHAR
STARTCHAR 0025
ENCODING 37
SWIDTH 617 0
DWIDTH 18 0
BBX 16 17 1 0
BITMAP
3C08
6710
E310
E320
E320
E740
6640
3C80
0080
013C
0166
02E7
02E7
04E7
08E7
0866
103C
ENDCHAR
STARTCHAR 0026
ENCODING 38
SWIDTH 857 0
DWIDTH 25 0
BBX 24 19 1 0
BITMAP
003C00
00C700
01C380
03C380
03C380
03C380
03C380
07C700
3BEC00
7BE0F8
71F13C
F1FA3C
F0FC3D
F87E11
F87F02
7C3FEE
7E1FFE
3FE7FC
0FC1F0
ENDCHAR
STARTCHAR 0027
ENCODING 39
SWIDTH 171 0
DWIDTH 5 0
BBX 3 8 1 13
BITMAP
60
E0
E0
60
60
60
40
40
ENDCHAR
STARTCHAR 0028
ENCODING 40
SWIDTH 308 0
DWIDTH 9 0
BBX 8 21 1 -2
BITMAP
03
06
1C
18
38
78
78
70
F0
F0
F0
F0
F0
F0
70
78
38
38
1C
0C
07
ENDCHAR
STARTCHAR 0029
ENCODING 41
SWIDTH 308 0
DWIDTH 9 0
BBX 8 21 0 -2
BITMAP
C0
70
38
1C
1C
1E
0E
0F
0F
0F
0F
0F
0F
0F
0F
0E
1E
1C
18
30
E0
ENDCHAR
STARTCHAR 002A
ENCODING 42
SWIDTH 342 0
DWIDTH 10 0
BBX 9 10 1 9
BITMAP
0800
1C00
5D00
EB80
FF00
1800
EF80
FB00
1C00
1800
ENDCHAR
STARTCHAR 002B
ENCODING 43
SWIDTH 480 0
DWIDTH 14 0
BBX 12 14 1 0
BITMAP
0200
0200
0200
0200
0200
0200
0200
FFF0
0200
0200
0200
0200
0200
0200
ENDCHAR
STARTCHAR 002C
ENCODING 44
SWIDTH 274 0
DWIDTH 8 0
BBX 6 9 1 -4
BITMAP
30
F8
FC
FC
7C
08
08
10
60
ENDCHAR
STARTCHAR 002D
ENCODING 45
SWIDTH 240 0
DWIDTH 7 0
BBX 5 2 1 6
BITMAP
F8
F8
ENDCHAR
STARTCHAR 002E
ENCODING 46
SWIDTH 240 0
DWIDTH 7 0
BBX 5 5 1 0
BITMAP
78
F8
F8
F8
70
ENDCHAR
STARTCHAR 002F
ENCODING 47
SWIDTH 274 0
DWIDTH 8 0
BBX 6 16 1 0
BITMAP
0C
08
08
08
10
10
10
20
20
20
20
40
40
40
80
80
ENDCHAR
STARTCHAR 0030
ENCODING 48
SWIDTH 582 0
DWIDTH 17 0
BBX 14 17 1 0
BITMAP
07C0
1C70
3878
7838
783C
F83C
F83C
F03C
F03C
F03C
F83C
F83C
783C
7838
3878
1C70
07C0
ENDCHAR
STARTCHAR 0031
ENCODING 49
SWIDTH 377 0
DWIDTH 11 0
BBX 9 18 1 0
BITMAP
0200
0E00
3E00
DE00
1E00
1E00
1E00
1E00
1E00
1E00
1E00
1E00
1E00
1E00
1E00
1E00
1E00
FF80
ENDCHAR
STARTCHAR 0032
ENCODING 50
SWIDTH 514 0
DWIDTH 15 0
BBX 13 17 1 0
BITMAP
1F80
61E0
40F0
F0F0
F8F8
70F0
21F0
03F0
03C0
0700
0C00
1008
3FF8
7FF8
7FF8
87F0
81E0
ENDCHAR
STARTCHAR 0033
ENCODING 51
SWIDTH 514 0
DWIDTH 15 0
BBX 13 17 1 0
BITMAP
3F80
41E0
61F0
70F0
79F0
71F0
03E0
0F00
01E0
00F0
20F8
F0F8
F8F8
F0F8
C0F0
41E0
3F80
ENDCHAR
STARTCHAR 0034
ENCODING 52
SWIDTH 514 0
DWIDTH 15 0
BBX 14 18 0 0
BITMAP
0060
00E0
01E0
01E0
03E0
05E0
05E0
09E0
11E0
11E0
21E0
41E4
41E4
FFFC
01E4
01E4
01E0
07F8
ENDCHAR
STARTCHAR 0035
ENCODING 53
SWIDTH 514 0
DWIDTH 15 0
BBX 13 19 1 0
BITMAP
0010
2030
3FF0
3FF0
3FE0
27E0
4180
4000
5F80
61E0
00F0
00F0
70F8
F0F8
F0F8
F0F0
C1F0
41E0
3F80
ENDCHAR
STARTCHAR 0036
ENCODING 54
SWIDTH 548 0
DWIDTH 16 0
BBX 14 17 1 0
BITMAP
07E0
1C30
3838
7838
7878
F878
F010
F7E0
F878
F078
F83C
F83C
F83C
783C
7878
3C70
0FE0
ENDCHAR
STARTCHAR 0037
ENCODING 55
SWIDTH 480 0
DWIDTH 14 0
BBX 13 18 0 0
BITMAP
3E08
7FC8
FFF8
FFF8
CFD0
8030
8020
00C0
0180
0380
0780
0780
0F80
0F80
0F80
0F80
0F80
0700
ENDCHAR
STARTCHAR 0038
ENCODING 56
SWIDTH 514 0
DWIDTH 15 0
BBX 14 17 1 0
BITMAP
0FC0
3070
3070
7038
7878
7E70
3F60
3FC0
1FE0
37F0
73F8
F0F8
E07C
E038
F038
7870
1FC0
ENDCHAR
STARTCHAR 0039
ENCODING 57
SWIDTH 548 0
DWIDTH 16 0
BBX 14 17 1 0
BITMAP
1FC0
38F0
7078
F078
F07C
F07C
787C
787C
1FFC
007C
007C
787C
7878
7078
7070
20E0
1F80
ENDCHAR
STARTCHAR 003A
ENCODING 58
SWIDTH 274 0
DWIDTH 8 0
BBX 5 14 1 0
BITMAP
70
F8
F8
F8
78
20
00
00
00
78
F8
F8
F8
70
ENDCHAR
STARTCHAR 003B
ENCODING 59
SWIDTH 274 0
DWIDTH 8 0
BBX 6 18 1 -4
BITMAP
70
F8
F8
F8
78
20
00
00
00
30
F8
FC
FC
7C
08
08
10
60
ENDCHAR
STARTCHAR 003C
ENCODING 60
SWIDTH 480 0
DWIDTH 14 0
BBX 12 12 1 1
BITMAP
0030
00C0
0300
0C00
3000
C000
4000
3000
0C00
0300
00C0
0030
ENDCHAR
STARTCHAR 003D
ENCODING 61
SWIDTH 445 0
DWIDTH 13 0
BBX 12 6 1 4
BITMAP
FFF0
0000
0000
0000
0000
FFF0
ENDCHAR
STARTCHAR 003E
ENCODING 62
SWIDTH 480 0
DWIDTH 14 0
BBX 12 12 1 1
BITMAP
C000
3000
0C00
0300
00C0
0030
0020
00C0
0300
0C00
3000
C000
ENDCHAR
STARTCHAR 003F
ENCODING 63
SWIDTH 445 0
DWIDTH 13 0
BBX 12 17 0 0
BITMAP
1F80
61E0
60F0
F0F0
F1F0
73F0
07E0
0F80
0E00
0C00
0400
0000
0F00
1F00
1F80
1F00
0E00
ENDCHAR
STARTCHAR 0040
ENCODING 64
SWIDTH 994 0
DWIDTH 29 0
BBX 20 20 4 -3
BITMAP
03FC00
0C0300
100080
200040
43FF20
47BE20
871E20
8F1E10
8E1E10
8E1E10
8E1E10
8E1E10
8F1E20
8F1E20
87FE40
43EF80
200000
100000
0C0000
01E000
ENDCHAR
STARTCHAR 0041
ENCODING 65
SWIDTH 651 0
DWIDTH 19 0
BBX 18 17 0 0
BITMAP
004000
00C000
00E000
01E000
01F000
01F000
02F800
02F800
047800
047C00
083C00
0FFE00
081E00
101F00
100F00
200F80
F81FC0
ENDCHAR
STARTCHAR 0042
ENCODING 66
SWIDTH 582 0
DWIDTH 17 0
BBX 16 17 1 0
BITMAP
FFE0
3C78
3C3C
3C3C
3C3C
3C3C
3C3C
3C78
3FE0
3C3C
3C1E
3C1E
3C1F
3C1F
3C1E
3C3E
FFF8
ENDCHAR
STARTCHAR 0043
ENCODING 67
SWIDTH 548 0
DWIDTH 16 0
BBX 15 17 1 0
BITMAP
07E4
1C1C
380C
7804
F804
F804
F004
F000
F000
F000
F000
F802
F804
7804
3804
1C18
07E0
ENDCHAR
STARTCHAR 0044
ENCODING 68
SWIDTH 617 0
DWIDTH 18 0
BBX 16 17 1 0
BITMAP
FFE0
3C78
3C3C
3C1E
3C1E
3C0F
3C0F
3C0F
3C0F
3C0F
3C0F
3C0F
3C1F
3C1E
3C1C
3C38
FFE0
ENDCHAR
STARTCHAR 0045
ENCODING 69
SWIDTH 548 0
DWIDTH 16 0
BBX 14 17 1 0
BITMAP
FFFC
3C0C
3C04
3C04
3C04
3C20
3C20
3C20
3FE0
3C20
3C20
3C04
3C04
3C04
3C0C
3C0C
FFFC
ENDCHAR
STARTCHAR 0046
ENCODING 70
SWIDTH 514 0
DWIDTH 15 0
BBX 14 17 1 0
BITMAP
FFFC
3C0C
3C0C
3C04
3C04
3C00
3C20
3C20
3C20
3FE0
3C20
3C20
3C00
3C00
3C00
3C00
FF00
ENDCHAR
STARTCHAR 0047
ENCODING 71
SWIDTH 617 0
DWIDTH 18 0
BBX 16 17 1 0
BITMAP
07E2
1C1C
380C
7804
7804
F802
F800
F800
F87F
F81E
F81E
F81E
F81E
781E
383E
1C22
07C2
ENDCHAR
STARTCHAR 0048
ENCODING 72
SWIDTH 651 0
DWIDTH 19 0
BBX 17 17 1 0
BITMAP
FE3F80
7C1F00
7C1F00
7C1F00
7C1F00
7C1F00
7C1F00
7C1F00
7FFF00
7C1F00
7C1F00
7C1F00
7C1F00
7C1F00
7C1F00
7C1F00
FE3F80
ENDCHAR
STARTCHAR 0049
ENCODING 73
SWIDTH 342 0
DWIDTH 10 0
BBX 7 17 1 0
BITMAP
FE
3C
3C
3C
3C
3C
3C
3C
3C
3C
3C
3C
3C
3C
3C
3C
FE
ENDCHAR
STARTCHAR 004A
ENCODING 74
SWIDTH 514 0
DWIDTH 15 0
BBX 14 17 0 0
BITMAP
03FC
00F0
00F0
00F0
00F0
00F0
00F0
00F0
00F0
00F0
70F0
78F0
F8F0
F0F0
41E0
41C0
3F80
ENDCHAR
STARTCHAR 004B
ENCODING 75
SWIDTH 651 0
DWIDTH 19 0
BBX 17 17 1 0
BITMAP
FE3F00
3C0800
3C1000
3C2000
3C2000
3C4000
3CE000
3DE000
3DF000
3FF000
3CF800
3CF800
3C7C00
3C7C00
3C3E00
3C1F00
FE3F80
ENDCHAR
STARTCHAR 004C
ENCODING 76
SWIDTH 514 0
DWIDTH 15 0
BBX 14 17 1 0
BITMAP
FF00
3C00
3C00
3C00
3C00
3C00
3C00
3C00
3C00
3C00
3C00
3C04
3C04
3C04
3C04
3C0C
FFFC
ENDCHAR
STARTCHAR 004D
ENCODING 77
SWIDTH 788 0
DWIDTH 23 0
BBX 21 17 1 0
BITMAP
FE01F8
3E03E0
5E03E0
5F03E0
4F05E0
4F85E0
4F89E0
4789E0
47C9E0
43D1E0
43F1E0
43E1E0
41E1E0
41E1E0
40C1E0
40C1E0
F8C3F8
ENDCHAR
STARTCHAR 004E
ENCODING 78
SWIDTH 582 0
DWIDTH 17 0
BBX 16 17 1 0
BITMAP
F81F
7C04
7E04
7F04
5F84
4F84
47C4
43E4
43F4
41FC
40FC
407C
403C
403C
401C
400C
F004
ENDCHAR
STARTCHAR 004F
ENCODING 79
SWIDTH 617 0
DWIDTH 18 0
BBX 16 17 1 0
BITMAP
07E0
1C38
381C
781E
F81F
F00F
F00F
F00F
F00F
F00F
F00F
F00F
F81F
781E
381C
1C38
07E0
ENDCHAR
STARTCHAR 0050
ENCODING 80
SWIDTH 548 0
DWIDTH 16 0
BBX 14 17 1 0
BITMAP
FFC0
3C70
3C38
3C3C
3C3C
3C3C
3C3C
3C3C
3C38
3C70
3FC0
3C00
3C00
3C00
3C00
3C00
FE00
ENDCHAR
STARTCHAR 0051
ENCODING 81
SWIDTH 685 0
DWIDTH 20 0
BBX 19 25 1 -8
BITMAP
07F000
1E1C00
3C0E00
780F00
780F80
F80780
F80780
F807C0
F807C0
F807C0
F80780
F80780
F80780
780F00
3C0F00
1C1E00
071800
007000
018020
0FC020
10FEE0
007FE0
001FE0
000FC0
000780
ENDCHAR
STARTCHAR 0052
ENCODING 82
SWIDTH 617 0
DWIDTH 18 0
BBX 17 17 1 0
BITMAP
FFF000
7C7C00
7C3C00
7C3E00
7C1E00
7C3E00
7C3C00
7C7800
7FE000
7CF800
7C7C00
7C7C00
7C7C00
7C3E00
7C3E00
7C1F00
FE0F80
ENDCHAR
STARTCHAR 0053
ENCODING 83
SWIDTH 548 0
DWIDTH 16 0
BBX 13 17 2 0
BITMAP
1F90
3070
6030
E010
F010
FC00
FF00
7FC0
3FF0
1FF8
87F8
80F8
8078
8038
C030
B070
8FC0
ENDCHAR
STARTCHAR 0054
ENCODING 84
SWIDTH 582 0
DWIDTH 17 0
BBX 15 17 1 0
BITMAP
FFFE
8786
8782
8782
8782
0780
0780
0780
0780
0780
0780
0780
0780
0780
0780
0780
1FE0
ENDCHAR
STARTCHAR 0055
ENCODING 85
SWIDTH 617 0
DWIDTH 18 0
BBX 16 17 1 0
BITMAP
FE0F
7C02
7C02
7C02
7C02
7C02
7C02
7C02
7C02
7C02
7C02
7C02
7C02
3C04
3E04
1F08
07F0
ENDCHAR
STARTCHAR 0056
ENCODING 86
SWIDTH 617 0
DWIDTH 18 0
BBX 18 17 0 0
BITMAP
FF87C0
3E0100
1F0200
1F0200
1F8200
0F8400
0FC400
07C800
07C800
03E800
03F000
01F000
01E000
01E000
00E000
00C000
004000
ENDCHAR
STARTCHAR 0057
ENCODING 87
SWIDTH 925 0
DWIDTH 27 0
BBX 26 17 0 0
BITMAP
FFBFC7C0
3F0F8100
3F0FC100
1F8FC100
1F87C200
0F87E200
0FC7E200
07CBF400
07E9F400
07F1F400
03F1F800
03E0F800
01E0F000
01E07000
00C07000
00C02000
00C02000
ENDCHAR
STARTCHAR 0058
ENCODING 88
SWIDTH 617 0
DWIDTH 18 0
BBX 18 17 0 0
BITMAP
7F8F80
1F0400
1F0400
0F8800
0FD000
07D000
03E000
03E000
01F000
01F000
02F800
04FC00
047C00
083E00
103E00
101F00
FC3FC0
ENDCHAR
STARTCHAR 0059
ENCODING 89
SWIDTH 617 0
DWIDTH 18 0
BBX 18 17 0 0
BITMAP
FF0FC0
3E0200
1F0200
1F8400
0F8400
0FC800
07C800
03F000
03F000
01E000
01E000
01E000
01E000
01E000
01E000
01E000
03F800
ENDCHAR
STARTCHAR 005A
ENCODING 90
SWIDTH 514 0
DWIDTH 15 0
BBX 13 17 1 0
BITMAP
7FF8
60F8
41F0
41E0
43E0
43C0
07C0
0F80
0F80
1F00
1F00
3E08
3E08
7C08
7C08
F818
FFF8
ENDCHAR
STARTCHAR 005B
ENCODING 91
SWIDTH 274 0
DWIDTH 8 0
BBX 7 20 1 -2
BITMAP
FE
F0
F0
F0
F0
F0
F0
F0
F0
F0
F0
F0
F0
F0
F0
F0
F0
F0
F0
FE
ENDCHAR
STARTCHAR 005C
ENCODING 92
SWIDTH 274 0
DWIDTH 8 0
BBX 6 16 1 0
BITMAP
80
80
40
40
40
20
20
20
20
10
10
10
08
08
08
04
ENDCHAR
STARTCHAR 005D
ENCODING 93
SWIDTH 274 0
DWIDTH 8 0
BBX 6 20 0 -2
BITMAP
FC
1C
1C
1C
1C
1C
1C
1C
1C
1C
1C
1C
1C
1C
1C
1C
1C
1C
1C
FC
ENDCHAR
STARTCHAR 005E
ENCODING 94
SWIDTH 342 0
DWIDTH 10 0
BBX 8 9 1 6
BITMAP
10
18
28
24
44
42
42
81
81
ENDCHAR
STARTCHAR 005F
ENCODING 95
SWIDTH 514 0
DWIDTH 15 0
BBX 13 1 1 -2
BITMAP
FFF8
ENDCHAR
STARTCHAR 0060
ENCODING 96
SWIDTH 548 0
DWIDTH 16 0
BBX 4 4 6 15
BITMAP
E0
E0
E0
30
ENDCHAR
STARTCHAR 0061
ENCODING 97
SWIDTH 548 0
DWIDTH 16 0
BBX 14 14 1 0
BITMAP
1FC0
38E0
78F0
78F0
78F0
30F0
03F0
1CF0
78F0
F0F0
F0F0
F0F0
F9F8
3E7C
ENDCHAR
STARTCHAR 0062
ENCODING 98
SWIDTH 548 0
DWIDTH 16 0
BBX 15 20 0 0
BITMAP
FC00
3C00
3C00
3C00
3C00
3C00
3DF0
3E78
3C3C
3C3E
3C1E
3C1E
3C1E
3C1E
3C1E
3C1E
3C1E
3C3C
2638
21F0
ENDCHAR
STARTCHAR 0063
ENCODING 99
SWIDTH 514 0
DWIDTH 15 0
BBX 13 14 1 0
BITMAP
0FC0
38E0
78F0
78F8
F0F8
F070
F000
F000
F000
F000
F800
7808
3C30
0FC0
ENDCHAR
STARTCHAR 0064
ENCODING 100
SWIDTH 582 0
DWIDTH 17 0
BBX 15 20 1 0
BITMAP
00FC
007C
007C
007C
007C
007C
1F7C
3EFC
787C
F87C
F87C
F07C
F07C
F07C
F07C
F07C
F87C
787C
3C7C
1FFE
ENDCHAR
STARTCHAR 0065
ENCODING 101
SWIDTH 514 0
DWIDTH 15 0
BBX 13 14 1 0
BITMAP
0F80
38E0
78F0
F070
F078
F078
F078
FFF8
F000
F000
7800
7808
3C30
0FC0
ENDCHAR
STARTCHAR 0066
ENCODING 102
SWIDTH 445 0
DWIDTH 13 0
BBX 12 20 1 0
BITMAP
07C0
1CE0
3CF0
3C60
3C00
3C00
FFC0
3C00
3C00
3C00
3C00
3C00
3C00
3C00
3C00
3C00
3C00
3C00
3C00
FE00
ENDCHAR
STARTCHAR 0067
ENCODING 103
SWIDTH 548 0
DWIDTH 16 0
BBX 15 25 1 -6
BITMAP
003C
005E
005C
005C
0040
0FE0
38F0
7878
F878
F878
F878
F878
7870
38E0
1F80
3000
7000
7FF0
7FFC
7FFC
5FFC
C00C
E008
F010
1FC0
ENDCHAR
STARTCHAR 0068
ENCODING 104
SWIDTH 651 0
DWIDTH 19 0
BBX 17 20 1 0
BITMAP
FC0000
3C0000
3C0000
3C0000
3C0000
3C0000
3CF800
3F3C00
3C1E00
3C1E00
3C1E00
3C1E00
3C1E00
3C1E00
3C1E00
3C1E00
3C1E00
3C1E00
3C1E00
FE3F80
ENDCHAR
STARTCHAR 0069
ENCODING 105
SWIDTH 308 0
DWIDTH 9 0
BBX 7 20 1 0
BITMAP
38
7C
7C
7C
38
00
FC
3C
3C
3C
3C
3C
3C
3C
3C
3C
3C
3C
3C
FE
ENDCHAR
STARTCHAR 006A
ENCODING 106
SWIDTH 342 0
DWIDTH 10 0
BBX 11 26 -3 -6
BITMAP
01C0
03C0
07E0
03C0
03C0
0000
0FC0
03C0
03C0
03C0
03C0
03C0
03C0
03C0
03C0
03C0
03C0
03C0
03C0
03C0
03C0
03C0
E3C0
E380
7780
3E00
ENDCHAR
STARTCHAR 006B
ENCODING 107
SWIDTH 617 0
DWIDTH 18 0
BBX 17 20 1 0
BITMAP
FC0000
3C0000
3C0000
3C0000
3C0000
3C0000
3C3E00
3C1000
3C2000
3C4000
3CC000
3DC000
3FE000
3FE000
3DF000
3CF800
3CF800
3C7C00
3C3E00
FE0F80
ENDCHAR
STARTCHAR 006C
ENCODING 108
SWIDTH 308 0
DWIDTH 9 0
BBX 7 20 1 0
BITMAP
FC
3C
3C
3C
3C
3C
3C
3C
3C
3C
3C
3C
3C
3C
3C
3C
3C
3C
3C
FE
ENDCHAR
STARTCHAR 006D
ENCODING 109
SWIDTH 960 0
DWIDTH 28 0
BBX 26 14 1 0
BITMAP
FCF87C00
3F3D9E00
3C1E0F00
3C1E0F00
3C1E0F00
3C1E0F80
3C1E0F80
3C1E0F80
3C1E0F80
3C1E0F80
3C1E0F80
3C1E0F80
3C1E0F80
FE7F9FC0
ENDCHAR
STARTCHAR 006E
ENCODING 110
SWIDTH 651 0
DWIDTH 19 0
BBX 17 14 1 0
BITMAP
FCF800
3F3C00
3C1E00
3C1E00
3C1E00
3C1E00
3C1E00
3C1E00
3C1E00
3C1E00
3C1E00
3C1E00
3C1E00
FE3F80
ENDCHAR
STARTCHAR 006F
ENCODING 111
SWIDTH 548 0
DWIDTH 16 0
BBX 14 14 1 0
BITMAP
0FC0
3870
7838
783C
F03C
F03C
F03C
F03C
F03C
F03C
783C
7838
3870
0FC0
ENDCHAR
STARTCHAR 0070
ENCODING 112
SWIDTH 582 0
DWIDTH 17 0
BBX 15 20 1 -6
BITMAP
F9E0
7E78
7C3C
7C3C
783E
783E
783E
783E
783E
783E
783C
7C7C
7AF8
79E0
7800
7800
7800
7800
7800
7E00
ENDCHAR
STARTCHAR 0071
ENCODING 113
SWIDTH 582 0
DWIDTH 17 0
BBX 15 20 1 -6
BITMAP
1F7E
3CFC
787C
F87C
F07C
F07C
F07C
F07C
F07C
F87C
F87C
787C
3EFC
1F7C
007C
007C
007C
007C
007C
00FE
ENDCHAR
STARTCHAR 0072
ENCODING 114
SWIDTH 480 0
DWIDTH 14 0
BBX 13 14 1 0
BITMAP
FCF0
3DF8
3E78
3E70
3C00
3C00
3C00
3C00
3C00
3C00
3C00
3C00
3C00
FE00
ENDCHAR
STARTCHAR 0073
ENCODING 115
SWIDTH 480 0
DWIDTH 14 0
BBX 12 14 1 0
BITMAP
1F80
6060
60E0
E0E0
F860
FF80
7FE0
3FF0
1FF0
E1F0
E070
E030
6060
1FC0
ENDCHAR
STARTCHAR 0074
ENCODING 116
SWIDTH 342 0
DWIDTH 10 0
BBX 10 19 0 0
BITMAP
0200
0200
0600
0600
0E00
FFC0
3E00
3E00
3E00
3E00
3E00
3E00
3E00
3E00
3E00
3E00
1E00
1F40
0F80
ENDCHAR
STARTCHAR 0075
ENCODING 117
SWIDTH 617 0
DWIDTH 18 0
BBX 17 14 0 0
BITMAP
FC3F00
3C1F00
3C1F00
3C1F00
3C1F00
3C1F00
3C1F00
3C1F00
3C1F00
3C1F00
3C1F00
3C1F00
1E3F00
0FDF80
ENDCHAR
STARTCHAR 0076
ENCODING 118
SWIDTH 548 0
DWIDTH 16 0
BBX 15 14 0 0
BITMAP
FF1E
3E04
3E08
1F08
1F10
0F90
0F90
07A0
07E0
03C0
03C0
0180
0180
0080
ENDCHAR
STARTCHAR 0077
ENCODING 119
SWIDTH 822 0
DWIDTH 24 0
BBX 24 14 0 0
BITMAP
FF3F9F
3E1F04
3E1F04
1F1F88
1F1F88
0F97D0
0FA7D0
07E3D0
07C3E0
03C3E0
03C1C0
0381C0
0180C0
010080
ENDCHAR
STARTCHAR 0078
ENCODING 120
SWIDTH 582 0
DWIDTH 17 0
BBX 16 14 0 0
BITMAP
FF1F
3E08
3F10
1F10
0FA0
07C0
07C0
03E0
03F0
05F0
08F8
107C
103E
F87F
ENDCHAR
STARTCHAR 0079
ENCODING 121
SWIDTH 548 0
DWIDTH 16 0
BBX 16 20 0 -6
BITMAP
FF1F
3E04
3E04
1F08
1F08
0F90
0F90
07E0
07E0
03C0
03C0
01C0
0180
0080
0100
2100
F900
FE00
FC00
7800
ENDCHAR
STARTCHAR 007A
ENCODING 122
SWIDTH 514 0
DWIDTH 15 0
BBX 13 14 0 0
BITMAP
7FF8
60F8
41F0
41E0
43E0
47C0
07C0
0F80
1F08
1F08
3E08
3C08
7C18
FFF8
ENDCHAR
STARTCHAR 007B
ENCODING 123
SWIDTH 274 0
DWIDTH 8 0
BBX 7 21 1 -2
BITMAP
0E
3C
38
38
38
3C
3C
3C
3C
38
E0
38
3C
3C
3C
3C
38
38
38
38
0E
ENDCHAR
STARTCHAR 007C
ENCODING 124
SWIDTH 137 0
DWIDTH 4 0
BBX 1 21 2 -3
BITMAP
80
80
80
80
80
80
80
80
80
80
80
80
80
80
80
80
80
80
80
80
80
ENDCHAR
STARTCHAR 007D
ENCODING 125
SWIDTH 274 0
DWIDTH 8 0
BBX 7 21 0 -2
BITMAP
F0
38
3C
3C
3C
3C
38
78
78
38
0E
38
78
78
38
38
3C
3C
3C
38
F0
ENDCHAR
STARTCHAR 007E
ENCODING 126
SWIDTH 480 0
DWIDTH 14 0
BBX 12 5 1 5
BITMAP
3C10
7F10
FFF0
8FE0
83C0
ENDCHAR
STARTCHAR 00A0
ENCODING 160
SWIDTH 205 0
DWIDTH 6 0
BBX 0 0 0 0
BITMAP
ENDCHAR
STARTCHAR 00A1
ENCODING 161
SWIDTH 240 0
DWIDTH 7 0
BBX 5 17 1 0
BITMAP
70
78
F8
70
20
20
20
20
30
70
70
78
F8
F8
F8
F8
70
ENDCHAR
STARTCHAR 00A2
ENCODING 162
SWIDTH 411 0
DWIDTH 12 0
BBX 10 13 1 2
BITMAP
0040
1F80
3880
7180
F3C0
F180
F200
F400
7C40
7C80
3F80
1400
1000
ENDCHAR
STARTCHAR 00A3
ENCODING 163
SWIDTH 514 0
DWIDTH 15 0
BBX 13 17 1 0
BITMAP
0FC0
3C20
3830
78F0
78F0
78F0
7C00
3C00
FFC0
3C00
1800
3008
2C18
7FF8
7FF0
87F0
81E0
ENDCHAR
STARTCHAR 00A4
ENCODING 164
SWIDTH 445 0
DWIDTH 13 0
BBX 11 12 1 1
BITMAP
8020
4040
2E80
1100
2080
2080
2080
2080
1100
2E80
4040
8020
ENDCHAR
STARTCHAR 00A5
ENCODING 165
SWIDTH 617 0
DWIDTH 18 0
BBX 18 17 0 0
BITMAP
FF0FC0
3E0200
1F0200
1F8400
0F8400
07C800
07C800
1FFF00
03F000
01E000
01E000
1FFF00
01E000
01E000
01E000
01E000
07F800
ENDCHAR
STARTCHAR 00A6
ENCODING 166
SWIDTH 137 0
DWIDTH 4 0
BBX 1 17 2 0
BITMAP
80
80
80
80
80
80
80
00
00
00
80
80
80
80
80
80
80
ENDCHAR
STARTCHAR 00A7
ENCODING 167
SWIDTH 377 0
DWIDTH 11 0
BBX 10 17 1 0
BITMAP
3F80
6180
7080
7C00
7F00
3F80
4FC0
C3C0
E1C0
F980
FE00
7F00
3F00
8F80
C380
C300
BE00
ENDCHAR
STARTCHAR 00A8
ENCODING 168
SWIDTH 685 0
DWIDTH 20 0
BBX 8 4 6 16
BITMAP
42
E7
E7
E7
ENDCHAR
STARTCHAR 00A9
ENCODING 169
SWIDTH 582 0
DWIDTH 17 0
BBX 16 17 1 0
BITMAP
07E0
1810
2008
4004
43C2
8722
8E71
9E71
9E01
9E01
9E11
8F12
47E2
4004
2008
1810
07E0
ENDCHAR
STARTCHAR 00AB
ENCODING 171
SWIDTH 445 0
DWIDTH 13 0
BBX 10 9 2 2
BITMAP
0840
1080
3180
E700
E700
6700
3180
1880
0840
ENDCHAR
STARTCHAR 00AC
ENCODING 172
SWIDTH 514 0
DWIDTH 15 0
BBX 12 8 1 0
BITMAP
FFF0
0010
0010
0010
0010
0010
0010
0010
ENDCHAR
STARTCHAR 00AE
ENCODING 174
SWIDTH 582 0
DWIDTH 17 0
BBX 16 17 1 0
BITMAP
07E0
1810
2008
4004
4F82
8662
8661
8661
8781
86E1
8661
8662
4F3A
4004
2008
1810
07E0
ENDCHAR
STARTCHAR 00AF
ENCODING 175
SWIDTH 582 0
DWIDTH 17 0
BBX 6 2 6 17
BITMAP
FC
FC
ENDCHAR
STARTCHAR 00B0
ENCODING 176
SWIDTH 411 0
DWIDTH 12 0
BBX 6 7 3 17
BITMAP
78
CC
CC
CC
CC
CC
78
ENDCHAR
STARTCHAR 00B1
ENCODING 177
SWIDTH 514 0
DWIDTH 15 0
BBX 12 14 1 0
BITMAP
0200
0200
0200
0200
0200
FFF0
0200
0200
0200
0200
0200
0200
0000
FFF0
ENDCHAR
STARTCHAR 00B2
ENCODING 178
SWIDTH 274 0
DWIDTH 8 0
BBX 5 7 1 10
BITMAP
78
D8
58
30
48
78
B8
ENDCHAR
STARTCHAR 00B3
ENCODING 179
SWIDTH 240 0
DWIDTH 7 0
BBX 5 7 1 10
BITMAP
70
D8
10
38
D8
98
30
ENDCHAR
STARTCHAR 00B4
ENCODING 180
SWIDTH 548 0
DWIDTH 16 0
BBX 4 4 6 15
BITMAP
70
70
E0
C0
ENDCHAR
STARTCHAR 00B5
ENCODING 181
SWIDTH 582 0
DWIDTH 17 0
BBX 17 20 0 -6
BITMAP
FC3F00
3C1F00
3C1F00
3C1F00
3C1F00
3C1F00
3C1F00
3C1F00
3C1F00
3C1F00
3C1F00
3C1F00
3E3F00
3FDF80
3C0000
3C0000
3C0000
3C0000
3C0000
3C0000
ENDCHAR
STARTCHAR 00B6
ENCODING 182
SWIDTH 480 0
DWIDTH 14 0
BBX 12 17 1 0
BITMAP
3FF0
F840
F840
F840
F840
F840
F840
F840
7840
3840
0840
0840
0840
0840
0840
0840
1830
ENDCHAR
STARTCHAR 00B7
ENCODING 183
SWIDTH 240 0
DWIDTH 7 0
BBX 6 6 0 4
BITMAP
38
7C
FC
FC
7C
38
ENDCHAR
STARTCHAR 00B8
ENCODING 184
SWIDTH 582 0
DWIDTH 17 0
BBX 5 7 6 -7
BITMAP
20
40
30
18
18
98
70
ENDCHAR
STARTCHAR 00B9
ENCODING 185
SWIDTH 205 0
DWIDTH 6 0
BBX 4 7 1 10
BITMAP
60
E0
60
60
60
60
F0
ENDCHAR
STARTCHAR 00BB
ENCODING 187
SWIDTH 411 0
DWIDTH 12 0
BBX 10 9 1 2
BITMAP
8400
4600
7300
3B80
3DC0
3B80
6300
4600
8400
ENDCHAR
STARTCHAR 00BC
ENCODING 188
SWIDTH 548 0
DWIDTH 16 0
BBX 13 17 1 0
BITMAP
3020
F020
7040
7040
7080
7080
7100
7100
FA30
0230
0470
04B0
0930
1130
13F8
2038
2078
ENDCHAR
STARTCHAR 00BD
ENCODING 189
SWIDTH 548 0
DWIDTH 16 0
BBX 14 17 1 0
BITMAP
3020
F020
7040
7040
7080
7080
7100
7100
FA70
029C
04CC
041C
0838
1060
1064
20FC
213C
ENDCHAR
STARTCHAR 00BE
ENCODING 190
SWIDTH 582 0
DWIDTH 17 0
BBX 15 17 1 0
BITMAP
7808
8C10
CC10
4C20
3020
0C40
CE40
CE80
8D00
710C
021C
022C
044C
044C
08FE
080E
101E
ENDCHAR
STARTCHAR 00BF
ENCODING 191
SWIDTH 445 0
DWIDTH 13 0
BBX 12 17 1 0
BITMAP
0700
0F00
0F80
0700
0200
0200
0200
0700
0F00
3E00
7C40
F8F0
F8F0
F8F0
F830
7820
1FC0
ENDCHAR
STARTCHAR 00C0
ENCODING 192
SWIDTH 651 0
DWIDTH 19 0
BBX 18 22 0 1
BITMAP
038000
038000
038000
004000
000000
004000
00C000
00E000
01E000
01F000
01F000
02F800
02F800
047800
047C00
083C00
0FFE00
081E00
101F00
100F00
200F80
F81FC0
ENDCHAR
STARTCHAR 00C1
ENCODING 193
SWIDTH 651 0
DWIDTH 19 0
BBX 18 22 0 1
BITMAP
003800
003800
007000
004000
000000
004000
00C000
00E000
01E000
01F000
01F000
02F800
02F800
047800
047C00
083C00
0FFE00
081E00
101F00
100F00
200F80
F81FC0
ENDCHAR
STARTCHAR 00C2
ENCODING 194
SWIDTH 651 0
DWIDTH 19 0
BBX 18 23 0 0
BITMAP
004000
00C000
00E000
01F000
021000
000000
004000
00C000
00E000
01E000
01F000
01F000
02F800
02F800
047800
047C00
083C00
0FFE00
081E00
101F00
100F00
200F80
F81FC0
ENDCHAR
STARTCHAR 00C3
ENCODING 195
SWIDTH 651 0
DWIDTH 19 0
BBX 18 22 0 0
BITMAP
018000
01D000
02F000
007000
000000
004000
00C000
00E000
01E000
01F000
01F000
02F800
02F800
047800
047C00
083C00
0FFE00
081E00
101F00
100F00
200F80
F81FC0
ENDCHAR
STARTCHAR 00C4
ENCODING 196
SWIDTH 651 0
DWIDTH 19 0
BBX 18 22 0 0
BITMAP
031800
07BC00
073800
031800
000000
004000
00C000
00E000
01E000
01F000
01F000
02F800
02F800
047800
047C00
083C00
0FFE00
081E00
101F00
100F00
200F80
F81FC0
ENDCHAR
STARTCHAR 00C5
ENCODING 197
SWIDTH 651 0
DWIDTH 19 0
BBX 18 23 0 0
BITMAP
00E000
012000
013000
012000
00E000
000000
004000
00C000
00E000
01E000
01F000
01F000
02F800
02F800
047800
047C00
083C00
0FFE00
081E00
101F00
100F00
200F80
F81FC0
ENDCHAR
STARTCHAR 00C6
ENCODING 198
SWIDTH 822 0
DWIDTH 24 0
BBX 23 17 0 0
BITMAP
007FFE
001F06
002F02
004F02
004F02
008F02
008F10
010F10
010FF0
020F10
060F10
07FF08
080F02
080F02
100F02
100F06
F83FFE
ENDCHAR
STARTCHAR 00C7
ENCODING 199
SWIDTH 548 0
DWIDTH 16 0
BBX 15 24 1 -7
BITMAP
07E4
1C1C
380C
7804
F804
F804
F004
F000
F000
F000
F000
F802
F804
7804
3804
1C08
07F0
0080
0080
01E0
0030
0030
0260
01C0
ENDCHAR
STARTCHAR 00C8
ENCODING 200
SWIDTH 548 0
DWIDTH 16 0
BBX 14 23 1 0
BITMAP
0600
0F00
0700
0300
0080
0000
FFFC
3C0C
3C04
3C04
3C04
3C20
3C20
3C20
3FE0
3C20
3C20
3C04
3C04
3C04
3C0C
3C0C
FFFC
ENDCHAR
STARTCHAR 00C9
ENCODING 201
SWIDTH 548 0
DWIDTH 16 0
BBX 14 23 1 0
BITMAP
00C0
01E0
01C0
0180
0200
0000
FFFC
3C0C
3C04
3C04
3C04
3C20
3C20
3C20
3FE0
3C20
3C20
3C04
3C04
3C04
3C0C
3C0C
FFFC
ENDCHAR
STARTCHAR 00CA
ENCODING 202
SWIDTH 548 0
DWIDTH 16 0
BBX 14 23 1 0
BITMAP
0100
0180
0380
06C0
0000
0000
FFFC
3C0C
3C04
3C04
3C04
3C20
3C20
3C20
3FE0
3C20
3C20
3C04
3C04
3C04
3C0C
3C0C
FFFC
ENDCHAR
STARTCHAR 00CB
ENCODING 203
SWIDTH 548 0
DWIDTH 16 0
BBX 14 22 1 0
BITMAP
0C60
1EF0
1EF0
0C60
0000
FFFC
3C0C
3C04
3C04
3C04
3C20
3C20
3C20
3FE0
3C20
3C20
3C04
3C04
3C04
3C0C
3C0C
FFFC
ENDCHAR
STARTCHAR 00CC
ENCODING 204
SWIDTH 308 0
DWIDTH 9 0
BBX 7 23 1 0
BITMAP
60
F0
70
30
08
00
FE
3C
3C
3C
3C
3C
3C
3C
3C
3C
3C
3C
3C
3C
3C
3C
FE
ENDCHAR
STARTCHAR 00CD
ENCODING 205
SWIDTH 308 0
DWIDTH 9 0
BBX 7 23 1 0
BITMAP
0C
1E
1C
18
20
00
FE
3C
3C
3C
3C
3C
3C
3C
3C
3C
3C
3C
3C
3C
3C
3C
FE
ENDCHAR
STARTCHAR 00CE
ENCODING 206
SWIDTH 308 0
DWIDTH 9 0
BBX 7 23 1 0
BITMAP
10
10
38
6C
00
00
FE
3C
3C
3C
3C
3C
3C
3C
3C
3C
3C
3C
3C
3C
3C
3C
FE
ENDCHAR
STARTCHAR 00CF
ENCODING 207
SWIDTH 308 0
DWIDTH 9 0
BBX 9 22 0 0
BITMAP
6300
F780
F780
6300
0000
7F00
1E00
1E00
1E00
1E00
1E00
1E00
1E00
1E00
1E00
1E00
1E00
1E00
1E00
1E00
1E00
7F00
ENDCHAR
STARTCHAR 00D0
ENCODING 208
SWIDTH 617 0
DWIDTH 18 0
BBX 16 17 1 0
BITMAP
FFE0
3C78
3C3C
3C1E
3C1E
3C0F
3C0F
3C0F
FF8F
3C0F
3C0F
3C0F
3C1F
3C1E
3C1C
3C38
FFE0
ENDCHAR
STARTCHAR 00D1
ENCODING 209
SWIDTH 582 0
DWIDTH 17 0
BBX 16 22 1 0
BITMAP
0300
07A0
05E0
00C0
0000
F81F
7C04
7E04
7F04
5F84
4F84
47C4
43E4
43F4
41FC
40FC
407C
403C
403C
401C
400C
F004
ENDCHAR
STARTCHAR 00D2
ENCODING 210
SWIDTH 617 0
DWIDTH 18 0
BBX 16 22 1 0
BITMAP
0600
0F00
0700
0100
0000
07E0
1C38
381C
781E
F81F
F00F
F00F
F00F
F00F
F00F
F00F
F00F
F81F
781E
381C
1C38
07E0
ENDCHAR
STARTCHAR 00D3
ENCODING 211
SWIDTH 617 0
DWIDTH 18 0
BBX 16 22 1 0
BITMAP
0070
00F0
00E0
0080
0000
07E0
1C38
381C
781E
F81F
F00F
F00F
F00F
F00F
F00F
F00F
F00F
F81F
781E
381C
1C38
07E0
ENDCHAR
STARTCHAR 00D4
ENCODING 212
SWIDTH 617 0
DWIDTH 18 0
BBX 16 23 1 0
BITMAP
0100
0180
03C0
03C0
0420
0000
07E0
1C38
381C
781E
F81F
F00F
F00F
F00F
F00F
F00F
F00F
F00F
F81F
781E
381C
1C38
07E0
ENDCHAR
STARTCHAR 00D5
ENCODING 213
SWIDTH 617 0
DWIDTH 18 0
BBX 16 22 1 0
BITMAP
0300
07A0
05E0
00C0
0000
07E0
1C38
381C
781E
F81F
F00F
F00F
F00F
F00F
F00F
F00F
F00F
F81F
781E
381C
1C38
07E0
ENDCHAR
STARTCHAR 00D6
ENCODING 214
SWIDTH 617 0
DWIDTH 18 0
BBX 16 23 1 0
BITMAP
0420
0E70
0E70
0E70
0000
0000
07E0
1C38
381C
781E
F81F
F00F
F00F
F00F
F00F
F00F
F00F
F00F
F81F
781E
381C
1C38
07E0
ENDCHAR
STARTCHAR 00D7
ENCODING 215
SWIDTH 377 0
DWIDTH 11 0
BBX 9 9 1 2
BITMAP
8080
4100
2200
1400
0800
1400
2200
4100
8080
ENDCHAR
STARTCHAR 00D8
ENCODING 216
SWIDTH 685 0
DWIDTH 20 0
BBX 17 17 2 0
BITMAP
07E080
1C3900
3C1E00
781E00
780F00
F81F00
F82F00
F04F80
F08F80
F10F80
F20F80
FC0F00
F80F00
781E00
381E00
5C3C00
87E000
ENDCHAR
STARTCHAR 00D9
ENCODING 217
SWIDTH 617 0
DWIDTH 18 0
BBX 16 23 1 0
BITMAP
0180
03C0
01C0
00C0
0020
0000
FE0F
7C02
7C02
7C02
7C02
7C02
7C02
7C02
7C02
7C02
7C02
7C02
7C02
3C04
3E04
1F08
07F0
ENDCHAR
STARTCHAR 00DA
ENCODING 218
SWIDTH 617 0
DWIDTH 18 0
BBX 16 23 1 0
BITMAP
0010
0038
0078
0060
0040
0000
FE0F
7C02
7C02
7C02
7C02
7C02
7C02
7C02
7C02
7C02
7C02
7C02
7C02
3C04
3E04
1F08
07F0
ENDCHAR
STARTCHAR 00DB
ENCODING 219
SWIDTH 617 0
DWIDTH 18 0
BBX 16 23 1 0
BITMAP
0040
00E0
01E0
0130
0000
0000
FE0F
7C02
7C02
7C02
7C02
7C02
7C02
7C02
7C02
7C02
7C02
7C02
7C02
3C04
3E04
1F08
07F0
ENDCHAR
STARTCHAR 00DC
ENCODING 220
SWIDTH 617 0
DWIDTH 18 0
BBX 16 23 1 0
BITMAP
0318
07BC
07BC
0318
0000
0000
FE0F
7C02
7C02
7C02
7C02
7C02
7C02
7C02
7C02
7C02
7C02
7C02
7C02
3C04
3E04
1F08
07F0
ENDCHAR
STARTCHAR 00DD
ENCODING 221
SWIDTH 617 0
DWIDTH 18 0
BBX 18 23 0 0
BITMAP
001800
003800
003800
003000
004000
000000
FF0FC0
3E0200
1F0200
1F8400
0F8400
0FC800
07C800
03F000
03F000
01E000
01E000
01E000
01E000
01E000
01E000
01E000
03F800
ENDCHAR
STARTCHAR 00DE
ENCODING 222
SWIDTH 548 0
DWIDTH 16 0
BBX 14 17 1 0
BITMAP
FE00
3C00
3C00
3FC0
3C70
3C38
3C3C
3C3C
3C3C
3C3C
3C3C
3C38
3C70
3FC0
3C00
3C00
FE00
ENDCHAR
STARTCHAR 00DF
ENCODING 223
SWIDTH 685 0
DWIDTH 20 0
BBX 19 20 1 0
BITMAP
03F800
0E0E00
1E0700
3C0700
3C0700
3C0400
FC1800
3C2000
3CE000
3CE000
3CF800
3CFF00
3CFFC0
3C3FC0
3C07E0
3CE3E0
3CF1E0
3CE1C0
3CC180
FE3F00
ENDCHAR
STARTCHAR 00E0
ENCODING 224
SWIDTH 514 0
DWIDTH 15 0
BBX 14 20 1 0
BITMAP
0400
0E00
0E00
0600
0100
0000
1FC0
38E0
78F0
78F0
78F0
30F0
03F0
1CF0
78F0
F0F0
F0F0
F0F0
F9F8
3E7C
ENDCHAR
STARTCHAR 00E1
ENCODING 225
SWIDTH 514 0
DWIDTH 15 0
BBX 14 20 1 0
BITMAP
0100
0380
0380
0380
0400
0000
1FC0
38E0
78F0
78F0
78F0
30F0
03F0
1CF0
78F0
F0F0
F0F0
F0F0
F9F8
3E7C
ENDCHAR
STARTCHAR 00E2
ENCODING 226
SWIDTH 514 0
DWIDTH 15 0
BBX 14 20 1 0
BITMAP
0200
0300
0700
0780
0840
0000
1FC0
38E0
78F0
78F0
78F0
30F0
03F0
1CF0
78F0
F0F0
F0F0
F0F0
F9F8
3E7C
ENDCHAR
STARTCHAR 00E3
ENCODING 227
SWIDTH 514 0
DWIDTH 15 0
BBX 14 19 1 0
BITMAP
0E40
0F80
0B80
0000
0000
1FC0
38E0
78F0
78F0
78F0
30F0
03F0
1CF0
78F0
F0F0
F0F0
F0F0
F9F8
3E7C
ENDCHAR
STARTCHAR 00E4
ENCODING 228
SWIDTH 514 0
DWIDTH 15 0
BBX 14 19 1 0
BITMAP
18C0
3DE0
3DE0
18C0
0000
1FC0
38E0
78F0
78F0
78F0
30F0
03F0
1CF0
78F0
F0F0
F0F0
F0F0
F9F8
3E7C
ENDCHAR
STARTCHAR 00E5
ENCODING 229
SWIDTH 514 0
DWIDTH 15 0
BBX 14 20 1 0
BITMAP
0700
0D80
0880
0C80
0700
0000
1FC0
38E0
78F0
78F0
78F0
30F0
03F0
1CF0
78F0
F0F0
F0F0
F0F0
F9F8
3E7C
ENDCHAR
STARTCHAR 00E6
ENCODING 230
SWIDTH 788 0
DWIDTH 23 0
BBX 21 14 1 0
BITMAP
1FCFC0
30F8E0
78F870
78F878
78F878
30F078
03F078
38FFF8
78F000
F0F800
F07800
F87808
7CBC30
3F0FC0
ENDCHAR
STARTCHAR 00E7
ENCODING 231
SWIDTH 514 0
DWIDTH 15 0
BBX 13 21 1 -7
BITMAP
0FC0
38E0
78F0
78F8
F0F8
F070
F000
F000
F000
F000
F800
7808
3C30
0FC0
0100
0200
0380
00C0
00C0
04C0
0380
ENDCHAR
STARTCHAR 00E8
ENCODING 232
SWIDTH 514 0
DWIDTH 15 0
BBX 13 19 1 1
BITMAP
0E00
0E00
0E00
0100
0000
0F80
38E0
78F0
F070
F078
F078
F078
FFF8
F000
F000
7800
7808
3C30
0FC0
ENDCHAR
STARTCHAR 00E9
ENCODING 233
SWIDTH 514 0
DWIDTH 15 0
BBX 13 19 1 1
BITMAP
01C0
03C0
0380
0200
0000
0F80
38E0
78F0
F070
F078
F078
F078
FFF8
F000
F000
7800
7808
3C30
0FC0
ENDCHAR
STARTCHAR 00EA
ENCODING 234
SWIDTH 514 0
DWIDTH 15 0
BBX 13 20 1 0
BITMAP
0200
0300
0700
0780
0840
0000
0F80
38E0
78F0
F070
F078
F078
F078
FFF8
F000
F000
7800
7808
3C30
0FC0
ENDCHAR
STARTCHAR 00EB
ENCODING 235
SWIDTH 514 0
DWIDTH 15 0
BBX 13 20 1 0
BITMAP
18C0
3DE0
3DE0
18C0
0000
0000
0F80
38E0
78F0
F070
F078
F078
F078
FFF8
F000
F000
7800
7808
3C30
0FC0
ENDCHAR
STARTCHAR 00EC
ENCODING 236
SWIDTH 308 0
DWIDTH 9 0
BBX 7 20 1 0
BITMAP
60
70
70
30
08
00
FC
3C
3C
3C
3C
3C
3C
3C
3C
3C
3C
3C
3C
FE
ENDCHAR
STARTCHAR 00ED
ENCODING 237
SWIDTH 308 0
DWIDTH 9 0
BBX 7 20 1 0
BITMAP
0C
1C
1C
18
20
00
FC
3C
3C
3C
3C
3C
3C
3C
3C
3C
3C
3C
3C
FE
ENDCHAR
STARTCHAR 00EE
ENCODING 238
SWIDTH 308 0
DWIDTH 9 0
BBX 7 20 1 0
BITMAP
10
18
38
6C
02
00
FC
3C
3C
3C
3C
3C
3C
3C
3C
3C
3C
3C
3C
FE
ENDCHAR
STARTCHAR 00EF
ENCODING 239
SWIDTH 308 0
DWIDTH 9 0
BBX 9 19 0 0
BITMAP
6300
F780
F780
6300
0000
7E00
1E00
1E00
1E00
1E00
1E00
1E00
1E00
1E00
1E00
1E00
1E00
1E00
7F00
ENDCHAR
STARTCHAR 00F0
ENCODING 240
SWIDTH 582 0
DWIDTH 17 0
BBX 15 20 1 0
BITMAP
3C0C
03B0
03E0
1CF0
2078
0078
0FBC
3C3C
783E
F83E
F03E
F03E
F03E
F03E
F03E
F03C
F83C
787C
3878
0FE0
ENDCHAR
STARTCHAR 00F1
ENCODING 241
SWIDTH 651 0
DWIDTH 19 0
BBX 17 19 1 0
BITMAP
01D000
03F000
026000
000000
000000
FCF800
3F3C00
3C1E00
3C1E00
3C1E00
3C1E00
3C1E00
3C1E00
3C1E00
3C1E00
3C1E00
3C1E00
3C1E00
FE3F80
ENDCHAR
STARTCHAR 00F2
ENCODING 242
SWIDTH 548 0
DWIDTH 16 0
BBX 14 19 1 1
BITMAP
0E00
0E00
0600
0100
0000
0FC0
3870
7838
783C
F03C
F03C
F03C
F03C
F03C
F03C
783C
7838
3870
0FC0
ENDCHAR
STARTCHAR 00F3
ENCODING 243
SWIDTH 548 0
DWIDTH 16 0
BBX 14 19 1 1
BITMAP
01C0
01C0
0180
0200
0000
0FC0
3870
7838
783C
F03C
F03C
F03C
F03C
F03C
F03C
783C
7838
3870
0FC0
ENDCHAR
STARTCHAR 00F4
ENCODING 244
SWIDTH 548 0
DWIDTH 16 0
BBX 14 20 1 0
BITMAP
0100
0300
0380
0780
0840
0000
0FC0
3870
7838
783C
F03C
F03C
F03C
F03C
F03C
F03C
783C
7838
3870
0FC0
ENDCHAR
STARTCHAR 00F5
ENCODING 245
SWIDTH 548 0
DWIDTH 16 0
BBX 14 19 1 0
BITMAP
0740
0FC0
0980
0000
0000
0FC0
3870
7838
783C
F03C
F03C
F03C
F03C
F03C
F03C
783C
7838
3870
0FC0
ENDCHAR
STARTCHAR 00F6
ENCODING 246
SWIDTH 548 0
DWIDTH 16 0
BBX 14 20 1 0
BITMAP
0C60
1EF0
1EF0
0C60
0000
0000
0FC0
3870
7838
783C
F03C
F03C
F03C
F03C
F03C
F03C
783C
7838
3870
0FC0
ENDCHAR
STARTCHAR 00F7
ENCODING 247
SWIDTH 480 0
DWIDTH 14 0
BBX 12 11 1 1
BITMAP
0600
0F00
0600
0000
0000
FFF0
0000
0000
0600
0F00
0600
ENDCHAR
STARTCHAR 00F8
ENCODING 248
SWIDTH 548 0
DWIDTH 16 0
BBX 14 14 1 0
BITMAP
0FC4
3874
7838
783C
F07C
F0BC
F13C
F23C
F43C
F83C
783C
7838
7870
8FC0
ENDCHAR
STARTCHAR 00F9
ENCODING 249
SWIDTH 617 0
DWIDTH 18 0
BBX 17 20 0 0
BITMAP
060000
070000
070000
030000
008000
000000
FC3F00
3C1F00
3C1F00
3C1F00
3C1F00
3C1F00
3C1F00
3C1F00
3C1F00
3C1F00
3C1F00
3C1F00
1E3F00
0FDF80
ENDCHAR
STARTCHAR 00FA
ENCODING 250
SWIDTH 617 0
DWIDTH 18 0
BBX 17 20 0 0
BITMAP
006000
00E000
00E000
00C000
010000
000000
FC3F00
3C1F00
3C1F00
3C1F00
3C1F00
3C1F00
3C1F00
3C1F00
3C1F00
3C1F00
3C1F00
3C1F00
1E3F00
0FDF80
ENDCHAR
STARTCHAR 00FB
ENCODING 251
SWIDTH 617 0
DWIDTH 18 0
BBX 17 20 0 0
BITMAP
008000
018000
01C000
036000
040000
000000
FC3F00
3C1F00
3C1F00
3C1F00
3C1F00
3C1F00
3C1F00
3C1F00
3C1F00
3C1F00
3C1F00
3C1F00
1E3F00
0FDF80
ENDCHAR
STARTCHAR 00FC
ENCODING 252
SWIDTH 617 0
DWIDTH 18 0
BBX 17 20 0 0
BITMAP
010800
039C00
039C00
039C00
000000
000000
FC3F00
3C1F00
3C1F00
3C1F00
3C1F00
3C1F00
3C1F00
3C1F00
3C1F00
3C1F00
3C1F00
3C1F00
1E3F00
0FDF80
ENDCHAR
STARTCHAR 00FD
ENCODING 253
SWIDTH 548 0
DWIDTH 16 0
BBX 16 26 0 -6
BITMAP
0020
0070
0070
0060
0080
0000
FF1F
3E04
3E04
1F08
1F08
0F90
0F90
07E0
07E0
03C0
03C0
01C0
0180
0080
0100
2100
F900
FE00
FC00
7800
ENDCHAR
STARTCHAR 00FE
ENCODING 254
SWIDTH 582 0
DWIDTH 17 0
BBX 15 26 1 -6
BITMAP
FC00
3C00
3C00
3C00
3C00
3C00
3DF0
3E78
3C3C
3C1E
3C1E
3C1E
3C1E
3C1E
3C1E
3C1E
3C1E
3C3C
3E78
3DF0
3C00
3C00
3C00
3C00
3C00
FE00
ENDCHAR
STARTCHAR 00FF
ENCODING 255
SWIDTH 548 0
DWIDTH 16 0
BBX 16 26 0 -6
BITMAP
0630
0F78
0F78
0630
0000
0000
FF1F
3E04
3E04
1F08
1F08
0F90
0F90
07E0
07E0
03C0
03C0
01C0
0180
0080
0100
2100
F900
FE00
FC00
7800
ENDCHAR
STARTCHAR 0100
ENCODING 256
SWIDTH 651 0
DWIDTH 19 0
BBX 18 21 0 0
BITMAP
03F000
03F000
000000
000000
004000
00C000
00E000
01E000
01F000
01F000
02F800
02F800
047800
047C00
083C00
0FFE00
081E00
101F00
100F00
200F80
F81FC0
ENDCHAR
STARTCHAR 0101
ENCODING 257
SWIDTH 514 0
DWIDTH 15 0
BBX 14 18 1 0
BITMAP
0FC0
0FC0
0000
0000
1FC0
38E0
78F0
78F0
78F0
30F0
03F0
1CF0
78F0
F0F0
F0F0
F0F0
F9F8
3E7C
ENDCHAR
STARTCHAR 0102
ENCODING 258
SWIDTH 651 0
DWIDTH 19 0
BBX 18 22 0 0
BITMAP
021000
021000
01E000
01E000
000000
004000
00C000
00E000
01E000
01F000
01F000
02F800
02F800
047800
047C00
083C00
0FFE00
081E00
101F00
100F00
200F80
F81FC0
ENDCHAR
STARTCHAR 0103
ENCODING 259
SWIDTH 514 0
DWIDTH 15 0
BBX 14 20 1 0
BITMAP
0880
0880
0F80
0780
0000
0000
1FC0
38E0
78F0
78F0
78F0
30F0
03F0
1CF0
78F0
F0F0
F0F0
F0F0
F9F8
3E7C
ENDCHAR
STARTCHAR 0104
ENCODING 260
SWIDTH 651 0
DWIDTH 19 0
BBX 18 22 0 -5
BITMAP
004000
00C000
00E000
01E000
01F000
01F000
02F800
02F800
047800
047C00
083C00
0FFE00
081E00
101F00
100F00
200F80
F81FC0
000100
000200
000600
000600
000780
ENDCHAR
STARTCHAR 0105
ENCODING 261
SWIDTH 514 0
DWIDTH 15 0
BBX 14 19 1 -5
BITMAP
1FC0
38E0
78F0
78F0
78F0
30F0
03F0
1CF0
78F0
F0F0
F0F0
F0F0
F9F8
3E7C
0040
0080
0080
01D0
00E0
ENDCHAR
STARTCHAR 0106
ENCODING 262
SWIDTH 548 0
DWIDTH 16 0
BBX 15 22 1 0
BITMAP
00E0
00E0
00C0
0100
0000
07E4
1C1C
380C
7804
F804
F804
F004
F000
F000
F000
F000
F802
F804
7804
3804
1C18
07E0
ENDCHAR
STARTCHAR 0107
ENCODING 263
SWIDTH 514 0
DWIDTH 15 0
BBX 13 19 1 1
BITMAP
01C0
01C0
0380
0200
0000
0FC0
38E0
78F0
78F8
F0F8
F070
F000
F000
F000
F000
F800
7808
3C30
0FC0
ENDCHAR
STARTCHAR 010A
ENCODING 266
SWIDTH 548 0
DWIDTH 16 0
BBX 15 23 1 0
BITMAP
0100
0380
0380
0380
0000
0000
07E4
1C1C
380C
7804
F804
F804
F004
F000
F000
F000
F000
F802
F804
7804
3804
1C18
07E0
ENDCHAR
STARTCHAR 010B
ENCODING 267
SWIDTH 514 0
DWIDTH 15 0
BBX 13 20 1 0
BITMAP
0300
0780
0780
0300
0000
0000
0FC0
38E0
78F0
78F8
F0F8
F070
F000
F000
F000
F000
F800
7808
3C30
0FC0
ENDCHAR
STARTCHAR 010C
ENCODING 268
SWIDTH 548 0
DWIDTH 16 0
BBX 15 23 1 0
BITMAP
0420
03C0
01C0
0180
0080
0000
07E4
1C1C
380C
7804
F804
F804
F004
F000
F000
F000
F000
F802
F804
7804
3804
1C18
07E0
ENDCHAR
STARTCHAR 010D
ENCODING 269
SWIDTH 514 0
DWIDTH 15 0
BBX 13 20 1 0
BITMAP
0840
0780
0780
0300
0100
0000
0FC0
38E0
78F0
78F8
F0F8
F070
F000
F000
F000
F000
F800
7808
3C30
0FC0
ENDCHAR
STARTCHAR 010E
ENCODING 270
SWIDTH 617 0
DWIDTH 18 0
BBX 16 23 1 0
BITMAP
0840
0780
0780
0300
0100
0000
FFE0
3C78
3C3C
3C1E
3C1E
3C0F
3C0F
3C0F
3C0F
3C0F
3C0F
3C0F
3C1F
3C1E
3C1C
3C38
FFE0
ENDCHAR
STARTCHAR 010F
ENCODING 271
SWIDTH 685 0
DWIDTH 20 0
BBX 18 20 1 0
BITMAP
00FDC0
007DC0
007DC0
007C40
007CC0
007D00
1F7C00
3EFC00
787C00
F87C00
F87C00
F07C00
F07C00
F07C00
F07C00
F07C00
F87C00
787C00
3C7C00
1FFE00
ENDCHAR
STARTCHAR 0110
ENCODING 272
SWIDTH 617 0
DWIDTH 18 0
BBX 16 17 1 0
BITMAP
FFE0
3C78
3C3C
3C1E
3C1E
3C0F
3C0F
3C0F
FF8F
3C0F
3C0F
3C0F
3C1F
3C1E
3C1C
3C38
FFE0
ENDCHAR
STARTCHAR 0111
ENCODING 273
SWIDTH 582 0
DWIDTH 17 0
BBX 15 20 1 0
BITMAP
00FC
007C
07FE
007C
007C
007C
1F7C
3CFC
787C
F83C
F83C
F03C
F03C
F03C
F03C
F03C
F83C
783C
3C7C
1FFE
ENDCHAR
STARTCHAR 0112
ENCODING 274
SWIDTH 548 0
DWIDTH 16 0
BBX 14 21 1 0
BITMAP
07C0
07C0
0000
0000
FFFC
3C0C
3C04
3C04
3C04
3C20
3C20
3C20
3FE0
3C20
3C20
3C04
3C04
3C04
3C0C
3C0C
FFFC
ENDCHAR
STARTCHAR 0113
ENCODING 275
SWIDTH 514 0
DWIDTH 15 0
BBX 13 19 1 0
BITMAP
0FC0
0FC0
0000
0000
0000
0F80
38E0
78F0
F070
F078
F078
F078
FFF8
F000
F000
7800
7808
3C30
0FC0
ENDCHAR
STARTCHAR 0114
ENCODING 276
SWIDTH 548 0
DWIDTH 16 0
BBX 14 22 1 0
BITMAP
0440
0440
07C0
0380
0000
FFFC
3C0C
3C04
3C04
3C04
3C20
3C20
3C20
3FE0
3C20
3C20
3C04
3C04
3C04
3C0C
3C0C
FFFC
ENDCHAR
STARTCHAR 0115
ENCODING 277
SWIDTH 514 0
DWIDTH 15 0
BBX 13 20 1 0
BITMAP
0880
0880
0F80
0780
0000
0000
0F80
38E0
78F0
F070
F078
F078
F078
FFF8
F000
F000
7800
7808
3C30
0FC0
ENDCHAR
STARTCHAR 0116
ENCODING 278
SWIDTH 548 0
DWIDTH 16 0
BBX 14 22 1 0
BITMAP
0180
03C0
0380
0180
0000
FFFC
3C0C
3C04
3C04
3C04
3C20
3C20
3C20
3FE0
3C20
3C20
3C04
3C04
3C04
3C0C
3C0C
FFFC
ENDCHAR
STARTCHAR 0117
ENCODING 279
SWIDTH 514 0
DWIDTH 15 0
BBX 13 20 1 0
BITMAP
0200
0700
0700
0700
0000
0000
0F80
38E0
78F0
F070
F078
F078
F078
FFF8
F000
F000
7800
7808
3C30
0FC0
ENDCHAR
STARTCHAR 0118
ENCODING 280
SWIDTH 548 0
DWIDTH 16 0
BBX 14 22 1 -5
BITMAP
FFFC
3C0C
3C04
3C04
3C04
3C20
3C20
3C20
3FE0
3C20
3C20
3C04
3C04
3C04
3C0C
3C0C
FFFC
0040
0040
00C0
00C0
00F0
ENDCHAR
STARTCHAR 0119
ENCODING 281
SWIDTH 514 0
DWIDTH 15 0
BBX 13 19 1 -5
BITMAP
0F80
38E0
78F0
7070
F078
F078
F078
FFF8
F000
F000
F800
7808
3C10
0FE0
0100
0200
0600
0780
0380
ENDCHAR
STARTCHAR 011A
ENCODING 282
SWIDTH 548 0
DWIDTH 16 0
BBX 14 23 1 0
BITMAP
0420
06C0
0380
0180
0100
0000
FFFC
3C0C
3C04
3C04
3C04
3C20
3C20
3C20
3FE0
3C20
3C20
3C04
3C04
3C04
3C0C
3C0C
FFFC
ENDCHAR
STARTCHAR 011B
ENCODING 283
SWIDTH 514 0
DWIDTH 15 0
BBX 13 20 1 0
BITMAP
0840
0780
0780
0300
0200
0000
0F80
38E0
78F0
F070
F078
F078
F078
FFF8
F000
F000
7800
7808
3C30
0FC0
ENDCHAR
STARTCHAR 011C
ENCODING 284
SWIDTH 617 0
DWIDTH 18 0
BBX 16 23 1 0
BITMAP
0180
0180
03C0
03C0
0420
0000
07E2
1C1C
380C
7804
7804
F802
F800
F800
F87F
F81E
F81E
F81E
F81E
781E
383E
1C22
07C2
ENDCHAR
STARTCHAR 011D
ENCODING 285
SWIDTH 548 0
DWIDTH 16 0
BBX 14 26 1 -6
BITMAP
0300
0300
0780
0480
0840
0000
0FC0
38F0
7878
F878
F878
F878
F878
7878
38E0
1F80
3000
7000
7FF0
7FFC
7FFC
5FFC
C00C
E008
F010
1FC0
ENDCHAR
STARTCHAR 011E
ENCODING 286
SWIDTH 617 0
DWIDTH 18 0
BBX 16 23 1 0
BITMAP
0420
0420
0640
03C0
03C0
0000
07E2
1C1C
380C
7804
7804
F802
F800
F800
F87F
F81E
F81E
F81E
F81E
781E
383E
1C22
07C2
ENDCHAR
STARTCHAR 011F
ENCODING 287
SWIDTH 548 0
DWIDTH 16 0
BBX 14 26 1 -6
BITMAP
0840
0C80
0F80
0780
0000
0000
0FC0
38F0
7878
F878
F878
F878
F878
7878
38E0
1F80
3000
7000
7FF0
7FFC
7FFC
5FFC
C00C
E008
F010
1FC0
ENDCHAR
STARTCHAR 0120
ENCODING 288
SWIDTH 617 0
DWIDTH 18 0
BBX 16 23 1 0
BITMAP
0180
03C0
03C0
0180
0000
0000
07E2
1C1C
380C
7804
7804
F802
F800
F800
F87F
F81E
F81E
F81E
F81E
781E
383E
1C22
07C2
ENDCHAR
STARTCHAR 0121
ENCODING 289
SWIDTH 548 0
DWIDTH 16 0
BBX 14 26 1 -6
BITMAP
0300
0780
0780
0300
0000
0000
0FC0
38F0
7878
F878
F878
F878
F878
7878
38E0
1F80
3000
7000
7FF0
7FFC
7FFC
5FFC
C00C
E008
F010
1FC0
ENDCHAR
STARTCHAR 0122
ENCODING 290
SWIDTH 617 0
DWIDTH 18 0
BBX 16 24 1 -7
BITMAP
07E2
1C1C
380C
7804
7804
F802
F800
F800
F87F
F81E
F81E
F81E
F81E
781E
383E
1C22
07C2
0000
0300
0780
0380
0100
0100
0200
ENDCHAR
STARTCHAR 0123
ENCODING 291
SWIDTH 548 0
DWIDTH 16 0
BBX 14 28 1 -6
BITMAP
0300
0400
0400
0700
0780
0780
0000
0000
0FC0
38F0
7878
F878
F878
F878
F878
7878
38E0
1F80
3000
7000
7FF0
7FFC
7FFC
5FFC
C00C
E008
F010
1FC0
ENDCHAR
STARTCHAR 0125
ENCODING 293
SWIDTH 651 0
DWIDTH 19 0
BBX 17 26 1 0
BITMAP
100000
180000
380000
7C0000
420000
000000
FC0000
3C0000
3C0000
3C0000
3C0000
3C0000
3CF800
3F3C00
3C1E00
3C1E00
3C1E00
3C1E00
3C1E00
3C1E00
3C1E00
3C1E00
3C1E00
3C1E00
3C1E00
FE3F80
ENDCHAR
STARTCHAR 0126
ENCODING 294
SWIDTH 685 0
DWIDTH 20 0
BBX 17 17 1 0
BITMAP
FE3F80
3C0F00
3C0F00
3C0F00
FFFF80
3C0F00
3C0F00
3C0F00
3FFF00
3C0F00
3C0F00
3C0F00
3C0F00
3C0F00
3C0F00
3C0F00
FE3F80
ENDCHAR
STARTCHAR 0127
ENCODING 295
SWIDTH 651 0
DWIDTH 19 0
BBX 17 20 1 0
BITMAP
FC0000
3C0000
FFE000
3C0000
3C0000
3C0000
3CF800
3F3C00
3C1E00
3C1E00
3C1E00
3C1E00
3C1E00
3C1E00
3C1E00
3C1E00
3C1E00
3C1E00
3C1E00
FE3F80
ENDCHAR
STARTCHAR 0128
ENCODING 296
SWIDTH 308 0
DWIDTH 9 0
BBX 7 22 1 0
BITMAP
30
7A
5C
0C
00
FE
3C
3C
3C
3C
3C
3C
3C
3C
3C
3C
3C
3C
3C
3C
3C
FE
ENDCHAR
STARTCHAR 0129
ENCODING 297
SWIDTH 308 0
DWIDTH 9 0
BBX 7 19 1 0
BITMAP
32
7E
5C
00
00
FC
3C
3C
3C
3C
3C
3C
3C
3C
3C
3C
3C
3C
FE
ENDCHAR
STARTCHAR 012A
ENCODING 298
SWIDTH 308 0
DWIDTH 9 0
BBX 7 21 1 0
BITMAP
7C
7C
00
00
FE
3C
3C
3C
3C
3C
3C
3C
3C
3C
3C
3C
3C
3C
3C
3C
FE
ENDCHAR
STARTCHAR 012B
ENCODING 299
SWIDTH 308 0
DWIDTH 9 0
BBX 7 18 1 0
BITMAP
7E
7E
00
00
FC
3C
3C
3C
3C
3C
3C
3C
3C
3C
3C
3C
3C
FE
ENDCHAR
STARTCHAR 012C
ENCODING 300
SWIDTH 308 0
DWIDTH 9 0
BBX 7 22 1 0
BITMAP
44
44
7C
38
00
FE
3C
3C
3C
3C
3C
3C
3C
3C
3C
3C
3C
3C
3C
3C
3C
FE
ENDCHAR
STARTCHAR 012D
ENCODING 301
SWIDTH 308 0
DWIDTH 9 0
BBX 7 19 1 0
BITMAP
42
7C
3C
00
00
FC
3C
3C
3C
3C
3C
3C
3C
3C
3C
3C
3C
3C
FE
ENDCHAR
STARTCHAR 012E
ENCODING 302
SWIDTH 308 0
DWIDTH 9 0
BBX 7 22 1 -5
BITMAP
FE
3C
3C
3C
3C
3C
3C
3C
3C
3C
3C
3C
3C
3C
3C
3C
FE
10
20
20
70
7C
ENDCHAR
STARTCHAR 012F
ENCODING 303
SWIDTH 308 0
DWIDTH 9 0
BBX 7 25 1 -5
BITMAP
38
7C
7C
7C
38
00
FC
3C
3C
3C
3C
3C
3C
3C
3C
3C
3C
3C
3C
FE
10
10
20
30
3C
ENDCHAR
STARTCHAR 0130
ENCODING 304
SWIDTH 308 0
DWIDTH 9 0
BBX 7 22 1 0
BITMAP
38
38
38
10
00
FE
3C
3C
3C
3C
3C
3C
3C
3C
3C
3C
3C
3C
3C
3C
3C
FE
ENDCHAR
STARTCHAR 0131
ENCODING 305
SWIDTH 342 0
DWIDTH 10 0
BBX 7 14 1 0
BITMAP
FC
3C
3C
3C
3C
3C
3C
3C
3C
3C
3C
3C
3C
FE
ENDCHAR
STARTCHAR 0132
ENCODING 306
SWIDTH 822 0
DWIDTH 24 0
BBX 22 17 1 0
BITMAP
FE01FC
3C00F8
3C00F8
3C00F8
3C00F8
3C00F8
3C00F8
3C00F8
3C00F8
3C00F8
3C38F8
3C78F8
3C78F8
3C78F0
3C60F0
3C21E0
FE1F80
ENDCHAR
STARTCHAR 0133
ENCODING 307
SWIDTH 651 0
DWIDTH 19 0
BBX 16 28 1 -8
BITMAP
380E
7C0F
7C1F
7C1F
380F
0000
FC3F
3C0F
3C0F
3C0F
3C0F
3C0F
3C0F
3C0F
3C0F
3C0F
3C0F
3C0F
3C0F
FE0F
000F
01CF
03CF
03CF
038F
020E
011C
00F0
ENDCHAR
STARTCHAR 0134
ENCODING 308
SWIDTH 514 0
DWIDTH 15 0
BBX 14 23 0 0
BITMAP
0020
0060
00F0
00F0
0108
0000
03FC
00F0
00F0
00F0
00F0
00F0
00F0
00F0
00F0
00F0
70F0
78F0
F8F0
F0F0
41E0
41C0
3F80
ENDCHAR
STARTCHAR 0135
ENCODING 309
SWIDTH 308 0
DWIDTH 9 0
BBX 10 26 -3 -6
BITMAP
0100
0380
0380
06C0
0000
0000
0FC0
03C0
03C0
03C0
03C0
03C0
03C0
03C0
03C0
03C0
03C0
03C0
03C0
03C0
03C0
03C0
E7C0
E780
E700
3E00
ENDCHAR
STARTCHAR 0136
ENCODING 310
SWIDTH 651 0
DWIDTH 19 0
BBX 17 24 1 -7
BITMAP
FE3F00
3C0800
3C1000
3C2000
3C2000
3C4000
3CE000
3DE000
3DF000
3FF000
3CF800
3CF800
3C7C00
3C7C00
3C3E00
3C1F00
FE3F80
000000
00C000
01E000
00E000
002000
004000
008000
ENDCHAR
STARTCHAR 0137
ENCODING 311
SWIDTH 617 0
DWIDTH 18 0
BBX 17 27 1 -7
BITMAP
FC0000
3C0000
3C0000
3C0000
3C0000
3C0000
3C3E00
3C1000
3C2000
3C4000
3CC000
3DC000
3FE000
3FE000
3DF000
3CF800
3CF800
3C7C00
3C3E00
FE0F80
000000
00C000
00E000
00E000
002000
004000
008000
ENDCHAR
STARTCHAR 0139
ENCODING 313
SWIDTH 514 0
DWIDTH 15 0
BBX 14 23 1 0
BITMAP
0C00
1C00
1C00
1800
2000
0000
FF00
3C00
3C00
3C00
3C00
3C00
3C00
3C00
3C00
3C00
3C00
3C04
3C04
3C04
3C04
3C0C
FFFC
ENDCHAR
STARTCHAR 013A
ENCODING 314
SWIDTH 308 0
DWIDTH 9 0
BBX 7 26 1 0
BITMAP
0C
1C
1C
18
20
00
FC
3C
3C
3C
3C
3C
3C
3C
3C
3C
3C
3C
3C
3C
3C
3C
3C
3C
3C
FE
ENDCHAR
STARTCHAR 013B
ENCODING 315
SWIDTH 514 0
DWIDTH 15 0
BBX 14 24 1 -7
BITMAP
FF00
3C00
3C00
3C00
3C00
3C00
3C00
3C00
3C00
3C00
3C00
3C04
3C04
3C04
3C04
3C0C
FFFC
0000
0300
0780
0380
0080
0100
0200
ENDCHAR
STARTCHAR 013C
ENCODING 316
SWIDTH 308 0
DWIDTH 9 0
BBX 7 27 1 -7
BITMAP
FC
3C
3C
3C
3C
3C
3C
3C
3C
3C
3C
3C
3C
3C
3C
3C
3C
3C
3C
FE
00
18
38
3C
08
08
10
ENDCHAR
STARTCHAR 013D
ENCODING 317
SWIDTH 514 0
DWIDTH 15 0
BBX 14 17 1 0
BITMAP
FF38
3C38
3C38
3C08
3C10
3C20
3C00
3C00
3C00
3C00
3C00
3C04
3C04
3C04
3C04
3C0C
FFFC
ENDCHAR
STARTCHAR 013E
ENCODING 318
SWIDTH 411 0
DWIDTH 12 0
BBX 11 20 1 0
BITMAP
FCC0
3DE0
3DE0
3C20
3C40
3C80
3C00
3C00
3C00
3C00
3C00
3C00
3C00
3C00
3C00
3C00
3C00
3C00
3C00
FE00
ENDCHAR
STARTCHAR 013F
ENCODING 319
SWIDTH 514 0
DWIDTH 15 0
BBX 14 17 1 0
BITMAP
FF00
3C00
3C00
3C00
3C00
3C00
3CE0
3CF0
3CF0
3C60
3C00
3C04
3C04
3C04
3C04
3C0C
FFFC
ENDCHAR
STARTCHAR 0140
ENCODING 320
SWIDTH 411 0
DWIDTH 12 0
BBX 12 20 1 0
BITMAP
FC00
3C00
3C00
3C00
3C00
3C00
3C00
3C00
3C00
3CE0
3CF0
3CF0
3C60
3C00
3C00
3C00
3C00
3C00
3C00
FE00
ENDCHAR
STARTCHAR 0141
ENCODING 321
SWIDTH 514 0
DWIDTH 15 0
BBX 14 17 1 0
BITMAP
FF00
3C00
3C00
3C40
3D80
3E00
3C00
7C00
BC00
3C00
3C00
3C04
3C04
3C04
3C04
3C0C
FFFC
ENDCHAR
STARTCHAR 0142
ENCODING 322
SWIDTH 342 0
DWIDTH 10 0
BBX 9 20 1 0
BITMAP
7E00
3E00
3E00
3E00
3E00
3E00
3E80
3F00
3E00
3E00
3E00
FE00
3E00
3E00
3E00
3E00
3E00
3E00
3E00
7F00
ENDCHAR
STARTCHAR 0143
ENCODING 323
SWIDTH 582 0
DWIDTH 17 0
BBX 16 23 1 0
BITMAP
0060
00E0
00E0
00C0
0100
0000
F81F
7C04
7E04
7F04
5F84
4F84
47C4
43E4
43F4
41FC
40FC
407C
403C
403C
401C
400C
F004
ENDCHAR
STARTCHAR 0144
ENCODING 324
SWIDTH 651 0
DWIDTH 19 0
BBX 17 19 1 1
BITMAP
00C000
01E000
01C000
010000
000000
FCF800
3F3C00
3C1E00
3C1E00
3C1E00
3C1E00
3C1E00
3C1E00
3C1E00
3C1E00
3C1E00
3C1E00
3C1E00
FE3F80
ENDCHAR
STARTCHAR 0145
ENCODING 325
SWIDTH 582 0
DWIDTH 17 0
BBX 16 24 1 -7
BITMAP
F81F
7C04
7E04
7F04
5F84
4F84
47C4
43E4
43F4
41FC
40FC
407C
403C
403C
401C
400C
F004
0000
0080
01C0
01C0
0040
0080
0100
ENDCHAR
STARTCHAR 0146
ENCODING 326
SWIDTH 651 0
DWIDTH 19 0
BBX 17 21 1 -7
BITMAP
FCF800
3F3C00
3C1E00
3C1E00
3C1E00
3C1E00
3C1E00
3C1E00
3C1E00
3C1E00
3C1E00
3C1E00
3C1E00
FE3F80
000000
00C000
01E000
00E000
004000
004000
008000
ENDCHAR
STARTCHAR 0147
ENCODING 327
SWIDTH 582 0
DWIDTH 17 0
BBX 16 23 1 0
BITMAP
0420
03C0
01C0
0180
0080
0000
F81F
7C04
7E04
7F04
5F84
4F84
47C4
43E4
43F4
41FC
40FC
407C
403C
403C
401C
400C
F004
ENDCHAR
STARTCHAR 0148
ENCODING 328
SWIDTH 651 0
DWIDTH 19 0
BBX 17 20 1 0
BITMAP
042000
03C000
03C000
018000
010000
000000
FCF800
3F3C00
3C1E00
3C1E00
3C1E00
3C1E00
3C1E00
3C1E00
3C1E00
3C1E00
3C1E00
3C1E00
3C1E00
FE3F80
ENDCHAR
STARTCHAR 014A
ENCODING 330
SWIDTH 651 0
DWIDTH 19 0
BBX 16 24 1 -7
BITMAP
FC1F
3E02
3F02
3F02
2F82
27C2
27E2
23F2
21F2
20FA
207C
207C
203C
201C
200C
2004
F804
0004
0002
0004
0074
007C
007C
0078
ENDCHAR
STARTCHAR 014B
ENCODING 331
SWIDTH 617 0
DWIDTH 18 0
BBX 15 21 1 -7
BITMAP
FCF8
3F3C
3C1E
3C1E
3C1E
3C1E
3C1E
3C1E
3C1E
3C1E
3C1E
3C1E
3C1E
FE1E
001E
001E
001E
001E
003C
0038
00C0
ENDCHAR
STARTCHAR 014C
ENCODING 332
SWIDTH 617 0
DWIDTH 18 0
BBX 16 22 1 0
BITMAP
07E0
07E0
0000
0000
0000
07E0
1C38
381C
781E
F81F
F00F
F00F
F00F
F00F
F00F
F00F
F00F
F81F
781E
381C
1C38
07E0
ENDCHAR
STARTCHAR 014D
ENCODING 333
SWIDTH 548 0
DWIDTH 16 0
BBX 14 19 1 0
BITMAP
0FC0
0FC0
0000
0000
0000
0FC0
3870
7838
783C
F03C
F03C
F03C
F03C
F03C
F03C
783C
7838
3870
0FC0
ENDCHAR
STARTCHAR 014E
ENCODING 334
SWIDTH 617 0
DWIDTH 18 0
BBX 16 23 1 0
BITMAP
0420
0420
0660
03C0
03C0
0000
07E0
1C38
381C
781E
F81F
F00F
F00F
F00F
F00F
F00F
F00F
F00F
F81F
781E
381C
1C38
07E0
ENDCHAR
STARTCHAR 014F
ENCODING 335
SWIDTH 548 0
DWIDTH 16 0
BBX 14 20 1 0
BITMAP
0840
0840
07C0
0780
0000
0000
0FC0
3870
7838
783C
F03C
F03C
F03C
F03C
F03C
F03C
783C
7838
3870
0FC0
ENDCHAR
STARTCHAR 0150
ENCODING 336
SWIDTH 617 0
DWIDTH 18 0
BBX 16 23 1 0
BITMAP
0318
03B8
03B8
0330
0220
0000
07E0
1C38
381C
781E
F81F
F00F
F00F
F00F
F00F
F00F
F00F
F00F
F81F
781E
381C
1C38
07E0
ENDCHAR
STARTCHAR 0151
ENCODING 337
SWIDTH 548 0
DWIDTH 16 0
BBX 14 20 1 0
BITMAP
0620
0E70
0E70
0C60
0840
0000
0FC0
3870
7838
783C
F03C
F03C
F03C
F03C
F03C
F03C
783C
7838
3870
0FC0
ENDCHAR
STARTCHAR 0152
ENCODING 338
SWIDTH 822 0
DWIDTH 24 0
BBX 21 17 1 0
BITMAP
07FFF8
1C3C18
3C3C08
783C08
783C08
F83C20
F83C20
F83C40
F83FC0
F83C40
F83C20
F83C08
F83C08
783C08
3C3C08
1C3C18
07FFF8
ENDCHAR
STARTCHAR 0153
ENCODING 339
SWIDTH 857 0
DWIDTH 25 0
BBX 23 14 1 0
BITMAP
0FC3F0
387638
783E1C
783E1E
F03E1E
F03E1E
F03E1E
F03FFE
F03E00
F03E00
783E00
783F02
387F84
0FC3F8
ENDCHAR
STARTCHAR 0154
ENCODING 340
SWIDTH 617 0
DWIDTH 18 0
BBX 17 23 1 0
BITMAP
004000
00E000
01E000
018000
010000
000000
FFF000
7C7C00
7C3C00
7C3E00
7C1E00
7C3E00
7C3C00
7C7800
7FE000
7CF800
7C7C00
7C7C00
7C7C00
7C3E00
7C3E00
7C1F00
FE0F80
ENDCHAR
STARTCHAR 0155
ENCODING 341
SWIDTH 480 0
DWIDTH 14 0
BBX 13 19 1 0
BITMAP
0380
0380
0300
0400
0000
FCF0
3DF8
3E78
3E70
3C00
3C00
3C00
3C00
3C00
3C00
3C00
3C00
3C00
FE00
ENDCHAR
STARTCHAR 0156
ENCODING 342
SWIDTH 617 0
DWIDTH 18 0
BBX 17 24 1 -7
BITMAP
FFF000
7C7C00
7C3C00
7C3E00
7C1E00
7C3E00
7C3C00
7C7800
7FE000
7CF800
7C7C00
7C7C00
7C7C00
7C3E00
7C3E00
7C1F00
FE0F80
000000
004000
00E000
00E000
002000
002000
00C000
ENDCHAR
STARTCHAR 0157
ENCODING 343
SWIDTH 480 0
DWIDTH 14 0
BBX 13 21 1 -7
BITMAP
FCF0
3DF8
3E78
3E70
3C00
3C00
3C00
3C00
3C00
3C00
3C00
3C00
3C00
FE00
0000
1800
3800
3C00
0800
0800
1000
ENDCHAR
STARTCHAR 0158
ENCODING 344
SWIDTH 617 0
DWIDTH 18 0
BBX 17 23 1 0
BITMAP
084000
06C000
038000
030000
010000
000000
FFF000
7C7C00
7C3C00
7C3E00
7C1E00
7C3E00
7C3C00
7C7800
7FE000
7CF800
7C7C00
7C7C00
7C7C00
7C3E00
7C3E00
7C1F00
FE0F80
ENDCHAR
STARTCHAR 0159
ENCODING 345
SWIDTH 480 0
DWIDTH 14 0
BBX 13 20 1 0
BITMAP
1080
0D80
0700
0600
0200
0000
FCF0
3DF8
3E78
3E70
3C00
3C00
3C00
3C00
3C00
3C00
3C00
3C00
3C00
FE00
ENDCHAR
STARTCHAR 015A
ENCODING 346
SWIDTH 514 0
DWIDTH 15 0
BBX 13 22 2 1
BITMAP
0380
0780
0700
0400
0000
1F90
3070
6030
E010
F010
FC00
FF00
7FC0
3FF0
1FF8
87F8
80F8
8078
8038
C030
B070
8FC0
ENDCHAR
STARTCHAR 015B
ENCODING 347
SWIDTH 480 0
DWIDTH 14 0
BBX 12 19 1 1
BITMAP
0380
0380
0300
0400
0000
1F80
6060
60E0
E0E0
F860
FF80
7FE0
3FF0
1FF0
E1F0
E070
E030
6060
1FC0
ENDCHAR
STARTCHAR 015C
ENCODING 348
SWIDTH 514 0
DWIDTH 15 0
BBX 13 23 2 0
BITMAP
0600
0600
0F00
0D00
1080
0000
1F90
3070
6030
E010
F010
FC00
FF00
7FC0
3FF0
1FF8
87F8
80F8
8078
8038
C030
B070
8FC0
ENDCHAR
STARTCHAR 015D
ENCODING 349
SWIDTH 480 0
DWIDTH 14 0
BBX 12 20 1 0
BITMAP
0400
0600
0F00
0F00
1080
0000
1F80
6060
60E0
E0E0
F860
FF80
7FE0
3FF0
1FF0
E1F0
E070
E030
6060
1FC0
ENDCHAR
STARTCHAR 015E
ENCODING 350
SWIDTH 514 0
DWIDTH 15 0
BBX 13 24 2 -7
BITMAP
1F90
3070
6030
E010
F010
FC00
FF00
7FC0
3FF0
1FF8
87F8
80F8
8078
8038
C030
B070
8FC0
0400
0400
0F00
0380
0180
1300
0F00
ENDCHAR
STARTCHAR 015F
ENCODING 351
SWIDTH 480 0
DWIDTH 14 0
BBX 12 21 1 -7
BITMAP
1F80
6060
60E0
E0E0
F860
FF00
7FE0
7FF0
1FF0
E1F0
E070
E030
6020
1FC0
0200
0400
0700
0180
0180
0980
0700
ENDCHAR
STARTCHAR 0160
ENCODING 352
SWIDTH 514 0
DWIDTH 15 0
BBX 13 23 2 0
BITMAP
1080
0F00
0E00
0600
0400
0000
1F90
3070
6030
E010
F010
FC00
FF00
7FC0
3FF0
1FF8
87F8
80F8
8078
8038
C030
B070
8FC0
ENDCHAR
STARTCHAR 0161
ENCODING 353
SWIDTH 480 0
DWIDTH 14 0
BBX 12 20 1 0
BITMAP
1080
0F00
0F00
0600
0400
0000
1F80
6060
60E0
E0E0
F860
FF80
7FE0
3FF0
1FF0
E1F0
E070
E030
6060
1FC0
ENDCHAR
STARTCHAR 0162
ENCODING 354
SWIDTH 582 0
DWIDTH 17 0
BBX 15 24 1 -7
BITMAP
FFFE
8786
8782
8782
8782
0780
0780
0780
0780
0780
0780
0780
0780
0780
0780
0780
1FE0
0000
0180
0380
0380
0080
0080
0300
ENDCHAR
STARTCHAR 0163
ENCODING 355
SWIDTH 342 0
DWIDTH 10 0
BBX 10 26 0 -7
BITMAP
0200
0200
0600
0600
0E00
FFC0
3E00
3E00
3E00
3E00
3E00
3E00
3E00
3E00
3E00
3E00
1E00
1F40
0F80
0000
0600
0700
0700
0100
0200
0400
ENDCHAR
STARTCHAR 0164
ENCODING 356
SWIDTH 582 0
DWIDTH 17 0
BBX 15 23 1 0
BITMAP
0840
06C0
0380
0300
0100
0000
FFFE
8786
8782
8782
8782
0780
0780
0780
0780
0780
0780
0780
0780
0780
0780
0780
1FE0
ENDCHAR
STARTCHAR 0165
ENCODING 357
SWIDTH 377 0
DWIDTH 11 0
BBX 11 20 0 0
BITMAP
00C0
01E0
03E0
0220
06C0
0E00
FFC0
3E00
3E00
3E00
3E00
3E00
3E00
3E00
3E00
3E00
3E00
1E00
1F40
0F80
ENDCHAR
STARTCHAR 0166
ENCODING 358
SWIDTH 548 0
DWIDTH 16 0
BBX 16 17 0 0
BITMAP
FFFF
C3C3
83C1
83C1
83C1
03C0
03C0
03C0
3FFC
03C0
03C0
03C0
03C0
03C0
03C0
03C0
0FF0
ENDCHAR
STARTCHAR 0167
ENCODING 359
SWIDTH 377 0
DWIDTH 11 0
BBX 10 18 0 0
BITMAP
0200
0200
0600
0E00
FFC0
3E00
3E00
3E00
3E00
FFC0
3E00
3E00
3E00
3E00
1E00
1E00
1F40
07C0
ENDCHAR
STARTCHAR 0168
ENCODING 360
SWIDTH 617 0
DWIDTH 18 0
BBX 16 22 1 0
BITMAP
01C0
01C8
0170
0030
0000
FE0F
7C02
7C02
7C02
7C02
7C02
7C02
7C02
7C02
7C02
7C02
7C02
7C02
3C04
3E04
1F08
07F0
ENDCHAR
STARTCHAR 0169
ENCODING 361
SWIDTH 617 0
DWIDTH 18 0
BBX 17 19 0 0
BITMAP
03A000
03E000
04E000
000000
000000
FC3F00
3C1F00
3C1F00
3C1F00
3C1F00
3C1F00
3C1F00
3C1F00
3C1F00
3C1F00
3C1F00
3C1F00
1E3F00
0FDF80
ENDCHAR
STARTCHAR 016A
ENCODING 362
SWIDTH 617 0
DWIDTH 18 0
BBX 16 22 1 0
BITMAP
01F0
01F0
0000
0000
0000
FE0F
7C02
7C02
7C02
7C02
7C02
7C02
7C02
7C02
7C02
7C02
7C02
7C02
3C04
3E04
1F08
07F0
ENDCHAR
STARTCHAR 016B
ENCODING 363
SWIDTH 617 0
DWIDTH 18 0
BBX 17 19 0 0
BITMAP
03E000
03E000
000000
000000
000000
FC3F00
3C1F00
3C1F00
3C1F00
3C1F00
3C1F00
3C1F00
3C1F00
3C1F00
3C1F00
3C1F00
3C1F00
1E3F00
0FDF80
ENDCHAR
STARTCHAR 016C
ENCODING 364
SWIDTH 617 0
DWIDTH 18 0
BBX 16 23 1 0
BITMAP
0110
0110
0110
01F0
00E0
0000
FE0F
7C02
7C02
7C02
7C02
7C02
7C02
7C02
7C02
7C02
7C02
7C02
7C02
3C04
3E04
1F08
07F0
ENDCHAR
STARTCHAR 016D
ENCODING 365
SWIDTH 617 0
DWIDTH 18 0
BBX 17 20 0 0
BITMAP
042000
022000
03E000
03C000
000000
000000
FC3F00
3C1F00
3C1F00
3C1F00
3C1F00
3C1F00
3C1F00
3C1F00
3C1F00
3C1F00
3C1F00
3C1F00
1E3F00
0FDF80
ENDCHAR
STARTCHAR 016E
ENCODING 366
SWIDTH 617 0
DWIDTH 18 0
BBX 16 23 1 0
BITMAP
00E0
01B0
0110
0130
00E0
0000
FE0F
7C02
7C02
7C02
7C02
7C02
7C02
7C02
7C02
7C02
7C02
7C02
7C02
3C04
3E04
1F08
07F0
ENDCHAR
STARTCHAR 016F
ENCODING 367
SWIDTH 617 0
DWIDTH 18 0
BBX 17 20 0 0
BITMAP
01C000
036000
022000
026000
01C000
000000
FC3F00
3C1F00
3C1F00
3C1F00
3C1F00
3C1F00
3C1F00
3C1F00
3C1F00
3C1F00
3C1F00
3C1F00
1E3F00
0FDF80
ENDCHAR
STARTCHAR 0170
ENCODING 368
SWIDTH 617 0
DWIDTH 18 0
BBX 16 23 1 0
BITMAP
00CC
01DC
01DC
0198
0110
0000
FE0F
7C02
7C02
7C02
7C02
7C02
7C02
7C02
7C02
7C02
7C02
7C02
7C02
3C04
3E04
1F08
07F0
ENDCHAR
STARTCHAR 0171
ENCODING 369
SWIDTH 617 0
DWIDTH 18 0
BBX 17 20 0 0
BITMAP
019800
03B800
03B800
033000
022000
000000
FC3F00
3C1F00
3C1F00
3C1F00
3C1F00
3C1F00
3C1F00
3C1F00
3C1F00
3C1F00
3C1F00
3C1F00
1E3F00
0FDF80
ENDCHAR
STARTCHAR 0172
ENCODING 370
SWIDTH 617 0
DWIDTH 18 0
BBX 16 22 1 -5
BITMAP
FE0F
7C02
7C02
7C02
7C02
7C02
7C02
7C02
7C02
7C02
7C02
7C02
7C02
3C04
3E04
1F08
07F0
0080
0180
0180
01E0
01C0
ENDCHAR
STARTCHAR 0173
ENCODING 371
SWIDTH 617 0
DWIDTH 18 0
BBX 17 19 0 -5
BITMAP
FC3F00
3C1F00
3C1F00
3C1F00
3C1F00
3C1F00
3C1F00
3C1F00
3C1F00
3C1F00
3C1F00
3C1F00
1E3F00
0FDF80
001000
002000
006000
007800
007000
ENDCHAR
STARTCHAR 0174
ENCODING 372
SWIDTH 925 0
DWIDTH 27 0
BBX 26 23 0 0
BITMAP
00020000
00060000
000F0000
000F0000
00108000
00000000
FFBFC7C0
3F0F8100
3F0FC100
1F8FC100
1F87C200
0F87E200
0FC7E200
07CBF400
07E9F400
07F1F400
03F1F800
03E0F800
01E0F000
01E07000
00C07000
00C02000
00C02000
ENDCHAR
STARTCHAR 0175
ENCODING 373
SWIDTH 822 0
DWIDTH 24 0
BBX 24 20 0 0
BITMAP
000800
000C00
001E00
001E00
002100
000000
FF3F9F
3E1F04
3E1F04
1F1F88
1F1F88
0F97D0
0FA7D0
07E3D0
07C3E0
03C3E0
03C1C0
0381C0
0180C0
010080
ENDCHAR
STARTCHAR 0176
ENCODING 374
SWIDTH 617 0
DWIDTH 18 0
BBX 18 23 0 0
BITMAP
004000
004000
00E000
01B000
000000
000000
FF0FC0
3E0200
1F0200
1F8400
0F8400
0FC800
07C800
03F000
03F000
01E000
01E000
01E000
01E000
01E000
01E000
01E000
03F800
ENDCHAR
STARTCHAR 0177
ENCODING 375
SWIDTH 548 0
DWIDTH 16 0
BBX 16 26 0 -6
BITMAP
0040
00E0
00E0
01B0
0000
0000
FF1F
3E04
3E04
1F08
1F08
0F90
0F90
07E0
07E0
03C0
03C0
01C0
0180
0080
0100
2100
F900
FE00
FC00
7800
ENDCHAR
STARTCHAR 0178
ENCODING 376
SWIDTH 617 0
DWIDTH 18 0
BBX 18 22 0 0
BITMAP
018C00
03DE00
03DE00
018C00
000000
FF0FC0
3E0200
1F0200
1F8400
0F8400
0FC800
07C800
03F000
03F000
01E000
01E000
01E000
01E000
01E000
01E000
01E000
03F800
ENDCHAR
STARTCHAR 0179
ENCODING 377
SWIDTH 514 0
DWIDTH 15 0
BBX 13 23 1 0
BITMAP
00C0
01C0
01C0
0180
0200
0000
7FF8
60F8
41F0
41E0
43E0
43C0
07C0
0F80
0F80
1F00
1F00
3E08
3E08
7C08
7C08
F818
FFF8
ENDCHAR
STARTCHAR 017A
ENCODING 378
SWIDTH 480 0
DWIDTH 14 0
BBX 13 20 0 0
BITMAP
00C0
01E0
01C0
0180
0200
0000
7FF8
60F8
41F0
41E0
43E0
47C0
07C0
0F80
1F08
1F08
3E08
3C08
7C18
FFF8
ENDCHAR
STARTCHAR 017B
ENCODING 379
SWIDTH 514 0
DWIDTH 15 0
BBX 13 22 1 0
BITMAP
0300
0780
0780
0300
0000
7FF8
60F8
41F0
41E0
43E0
43C0
07C0
0F80
0F80
1F00
1F00
3E08
3E08
7C08
7C08
F818
FFF8
ENDCHAR
STARTCHAR 017C
ENCODING 380
SWIDTH 480 0
DWIDTH 14 0
BBX 13 19 0 0
BITMAP
0380
0380
0380
0100
0000
7FF8
60F8
41F0
41E0
43E0
47C0
07C0
0F80
1F08
1F08
3E08
3C08
7C18
FFF8
ENDCHAR
STARTCHAR 017D
ENCODING 381
SWIDTH 514 0
DWIDTH 15 0
BBX 13 23 1 0
BITMAP
0840
0780
0780
0300
0200
0000
7FF8
60F8
41F0
41E0
43E0
43C0
07C0
0F80
0F80
1F00
1F00
3E08
3E08
7C08
7C08
F818
FFF8
ENDCHAR
STARTCHAR 017E
ENCODING 382
SWIDTH 480 0
DWIDTH 14 0
BBX 13 20 0 0
BITMAP
0420
07C0
0380
0180
0100
0000
7FF8
60F8
41F0
41E0
43E0
47C0
07C0
0F80
1F08
1F08
3E08
3C08
7C18
FFF8
ENDCHAR
STARTCHAR 0192
ENCODING 402
SWIDTH 582 0
DWIDTH 17 0
BBX 21 26 -2 -6
BITMAP
0007E0
000E70
001C78
003C78
003C30
007C00
007800
007800
007800
007800
07FF80
00F800
00F000
00F000
00F000
01F000
01F000
01F000
01E000
01E000
01E000
E3E000
F3C000
F3C000
F78000
3E0000
ENDCHAR
STARTCHAR 01FC
ENCODING 508
SWIDTH 822 0
DWIDTH 24 0
BBX 23 23 0 0
BITMAP
000180
0001C0
000380
000300
000400
000000
007FFE
001F06
002F02
004F02
004F02
008F02
008F10
010F10
010FF0
020F10
060F10
07FF08
080F02
080F02
100F02
100F06
F83FFE
ENDCHAR
STARTCHAR 01FD
ENCODING 509
SWIDTH 788 0
DWIDTH 23 0
BBX 21 20 1 0
BITMAP
000800
001C00
001C00
001800
002000
000000
1FCFC0
30F8E0
78F870
78F878
78F878
30F078
03F078
38FFF8
78F000
F0F800
F07800
F87808
7CBC30
3F0FC0
ENDCHAR
STARTCHAR 01FE
ENCODING 510
SWIDTH 685 0
DWIDTH 20 0
BBX 17 22 2 0
BITMAP
007000
007000
00E000
008000
000000
07E080
1C3900
3C1E00
781E00
780F00
F81F00
F82F00
F04F80
F08F80
F10F80
F20F80
FC0F00
F80F00
781E00
381E00
5C3C00
87E000
ENDCHAR
STARTCHAR 01FF
ENCODING 511
SWIDTH 548 0
DWIDTH 16 0
BBX 14 19 1 1
BITMAP
00E0
00E0
01C0
0100
0000
0FC4
3874
7838
783C
F07C
F0BC
F13C
F23C
F43C
F83C
783C
7838
7870
8FC0
ENDCHAR
STARTCHAR 0218
ENCODING 536
SWIDTH 514 0
DWIDTH 15 0
BBX 13 24 2 -7
BITMAP
1F90
3070
6030
E010
F010
FC00
FF00
7FC0
3FF0
1FF8
87F8
80F8
8078
8038
C030
B070
8FC0
0000
0600
0F00
0700
0200
0200
0400
ENDCHAR
STARTCHAR 0219
ENCODING 537
SWIDTH 480 0
DWIDTH 14 0
BBX 12 21 1 -7
BITMAP
1F80
6060
60E0
E0E0
F860
FF80
7FE0
3FF0
1FF0
E1F0
E070
E030
6060
1FC0
0000
0600
0E00
0E00
0200
0200
0400
ENDCHAR
STARTCHAR 02C6
ENCODING 710
SWIDTH 582 0
DWIDTH 17 0
BBX 5 4 6 15
BITMAP
20
70
78
88
ENDCHAR
STARTCHAR 02C7
ENCODING 711
SWIDTH 582 0
DWIDTH 17 0
BBX 5 4 6 15
BITMAP
88
78
70
20
ENDCHAR
STARTCHAR 02D8
ENCODING 728
SWIDTH 582 0
DWIDTH 17 0
BBX 5 4 6 15
BITMAP
88
88
F8
70
ENDCHAR
STARTCHAR 02D9
ENCODING 729
SWIDTH 514 0
DWIDTH 15 0
BBX 3 4 6 16
BITMAP
40
E0
E0
E0
ENDCHAR
STARTCHAR 02DA
ENCODING 730
SWIDTH 548 0
DWIDTH 16 0
BBX 5 5 6 15
BITMAP
70
D0
98
98
70
ENDCHAR
STARTCHAR 02DB
ENCODING 731
SWIDTH 548 0
DWIDTH 16 0
BBX 5 6 6 -5
BITMAP
20
20
40
C0
E8
70
ENDCHAR
STARTCHAR 02DC
ENCODING 732
SWIDTH 582 0
DWIDTH 17 0
BBX 6 3 6 16
BITMAP
E4
F8
B8
ENDCHAR
STARTCHAR 02DD
ENCODING 733
SWIDTH 651 0
DWIDTH 19 0
BBX 7 5 6 14
BITMAP
E6
EE
EE
8C
88
ENDCHAR
STARTCHAR 0901
ENCODING 2305
SWIDTH 0 0
DWIDTH 0 0
BBX 10 8 -9 18
BITMAP
1C00
1E00
1E00
9C40
80C0
FF80
7F80
3E00
ENDCHAR
STARTCHAR 0902
ENCODING 2306
SWIDTH 0 0
DWIDTH 0 0
BBX 4 4 -6 18
BITMAP
E0
F0
F0
E0
ENDCHAR
STARTCHAR 0903
ENCODING 2307
SWIDTH 205 0
DWIDTH 6 0
BBX 4 13 1 2
BITMAP
60
F0
F0
60
00
00
00
00
00
60
F0
F0
60
ENDCHAR
STARTCHAR 0905
ENCODING 2309
SWIDTH 720 0
DWIDTH 21 0
BBX 21 16 0 0
BITMAP
0FC7F8
11E3C0
01E3C0
01E3C0
03C3C0
0F03C0
01E3C0
01E3C0
70F3C0
F8FFC0
F8F3C0
F0F3C0
41E3C0
43C3C0
3F03C0
0003C0
ENDCHAR
STARTCHAR 0906
ENCODING 2310
SWIDTH 994 0
DWIDTH 29 0
BBX 30 16 0 0
BITMAP
0FC7FFFC
11E3C1E0
01E3C1E0
01E3C1E0
03C3C1E0
0F03C1E0
01E3C1E0
01E3C1E0
70F3C1E0
F8FFC1E0
F8F3C1E0
F0F3C1E0
41E3C1E0
43C3C1E0
3F03C1E0
0003C1E0
ENDCHAR
STARTCHAR 0907
ENCODING 2311
SWIDTH 445 0
DWIDTH 13 0
BBX 15 19 -1 -3
BITMAP
FFFE
01F0
01F0
07F0
1810
3800
3E00
3FC0
1FF0
0FF8
01F8
1C78
3C38
3E38
1C30
0FC0
0400
0800
1000
ENDCHAR
STARTCHAR 0908
ENCODING 2312
SWIDTH 480 0
DWIDTH 14 0
BBX 15 26 -1 -3
BITMAP
01E0
03D0
0388
0308
0380
0380
00C0
FFFE
01F0
01F0
07F0
1810
3800
3E00
3FC0
1FF0
0FF8
01F8
1C78
3C38
3E38
1C30
0FC0
0400
0800
1000
ENDCHAR
STARTCHAR 0909
ENCODING 2313
SWIDTH 480 0
DWIDTH 14 0
BBX 15 16 -1 0
BITMAP
FFFE
00F0
00F0
00F0
00F0
01E0
0780
00F0
0078
3878
7C78
7C78
7878
2078
20F0
1FC0
ENDCHAR
STARTCHAR 090A
ENCODING 2314
SWIDTH 685 0
DWIDTH 20 0
BBX 21 16 -1 0
BITMAP
FFFFF8
00F000
00F000
007000
00F000
00F000
01E000
07E3C0
00F5E0
0078F0
3878F0
7C78F0
7878F0
6078F0
20F1E0
1FC7C0
ENDCHAR
STARTCHAR 090B
ENCODING 2315
SWIDTH 857 0
DWIDTH 25 0
BBX 27 16 -1 0
BITMAP
FFFFFFE0
001E0000
001E0000
1E1E1E00
3F1E3900
4F9E7900
07DE7D00
03DFFE00
01FE1F00
01DE0F80
009E0780
031E0780
041E4380
181E4700
001E3E00
001E0000
ENDCHAR
STARTCHAR 090C
ENCODING 2316
SWIDTH 754 0
DWIDTH 22 0
BBX 23 21 -1 -5
BITMAP
FFFFFE
000780
000780
03C7C0
0E6CE0
1E3C70
1E3C78
3E3C78
3C3C78
3C3C78
3C3C78
1E0078
1E00F0
0E01E0
07C1C0
000310
000338
00023C
000238
000138
0000E0
ENDCHAR
STARTCHAR 090D
ENCODING 2317
SWIDTH 548 0
DWIDTH 16 0
BBX 18 22 -1 1
BITMAP
080200
040600
07FC00
03FC00
01F000
000000
000000
FFFFC0
1E0F00
1E0F00
1E1F00
1E1F00
1E1F00
1E1E00
1E7C00
1E0000
1E0600
1E1F00
0F0F00
0F0E00
078600
01F800
ENDCHAR
STARTCHAR 090E
ENCODING 2318
SWIDTH 548 0
DWIDTH 16 0
BBX 18 23 -1 1
BITMAP
0E0000
100000
300000
3FF800
1FFC00
0FFC00
000200
000400
FFFFC0
1E0F00
1E0F00
1E1F00
1E1F00
1E1F00
1E1E00
1E7C00
1E0000
1E0600
1E1F00
0F0F00
0F0E00
078600
01F800
ENDCHAR
STARTCHAR 090F
ENCODING 2319
SWIDTH 548 0
DWIDTH 16 0
BBX 18 15 -1 1
BITMAP
FFFFC0
1E0F00
1E0F00
1E1F00
1E1F00
1E1F00
1E1E00
1E7C00
1E0000
1E0600
1E1F00
0F0F00
0F0E00
078600
01F800
ENDCHAR
STARTCHAR 0910
ENCODING 2320
SWIDTH 548 0
DWIDTH 16 0
BBX 18 21 -1 1
BITMAP
038000
03C000
01E000
007000
000C00
000000
FFFFC0
1E0F00
1E0F00
1E1F00
1E1F00
1E1F00
1E1E00
1E7C00
1E0000
1E0600
1E1F00
0F0F00
0F0E00
078600
01F800
ENDCHAR
STARTCHAR 0911
ENCODING 2321
SWIDTH 994 0
DWIDTH 29 0
BBX 30 23 0 0
BITMAP
00008040
000080C0
0000FF80
00007F80
00003E00
00000000
00000000
0FC7FFFC
11E3C1E0
01E3C1E0
01E3C1E0
03C3C1E0
0F03C1E0
01E3C1E0
01E3C1E0
70F3C1E0
F8FFC1E0
F8F3C1E0
F0F3C1E0
41E3C1E0
43C3C1E0
3F03C1E0
0003C1E0
ENDCHAR
STARTCHAR 0912
ENCODING 2322
SWIDTH 994 0
DWIDTH 29 0
BBX 30 24 0 0
BITMAP
00038000
00020000
00060000
0007FF00
0003FF80
0001FF80
00000080
00000080
0FC7FFFC
11E3C1E0
01E3C1E0
01E3C1E0
03C3C1E0
0F03C1E0
01E3C1E0
01E3C1E0
70F3C1E0
F8FFC1E0
F8F3C1E0
F0F3C1E0
41E3C1E0
43C3C1E0
3F03C1E0
0003C1E0
ENDCHAR
STARTCHAR 0913
ENCODING 2323
SWIDTH 994 0
DWIDTH 29 0
BBX 30 23 0 0
BITMAP
00002000
00007800
00007C00
00003E00
00000E00
00000300
00000080
0FC7FFFC
11E3C1E0
01E3C1E0
01E3C1E0
03C3C1E0
0F03C1E0
01E3C1E0
01E3C1E0
70F3C1E0
F8FFC1E0
F8F3C1E0
F0F3C1E0
41E3C1E0
43C3C1E0
3F03C1E0
0003C1E0
ENDCHAR
STARTCHAR 0914
ENCODING 2324
SWIDTH 994 0
DWIDTH 29 0
BBX 30 24 0 0
BITMAP
00000400
00000E00
00008F00
0001E780
0001FB80
0000FCC0
00001E60
00000180
0FC7FFFC
11E3C1E0
01E3C1E0
01E3C1E0
03C3C1E0
0F03C1E0
01E3C1E0
01E3C1E0
70F3C1E0
F8FFC1E0
F8F3C1E0
F0F3C1E0
41E3C1E0
43C3C1E0
3F03C1E0
0003C1E0
ENDCHAR
STARTCHAR 0915
ENCODING 2325
SWIDTH 822 0
DWIDTH 24 0
BBX 25 16 -1 0
BITMAP
FFFFFF80
001E0000
001E0000
07DEF800
1F1FFC00
1E1E1E00
3C1E1E00
3C1E1E00
3C1E1F00
3C1E1F00
3E1E1E00
1E3E1E00
1FDE3C00
079EF800
001E0000
001E0000
ENDCHAR
STARTCHAR 0916
ENCODING 2326
SWIDTH 754 0
DWIDTH 22 0
BBX 24 16 -1 0
BITMAP
FFFFFF
078078
03C078
03C7F8
03DE78
03DC38
07BC38
1E3C38
7C3C38
1E1E38
1F1FB8
0F0678
0F8078
07C0F8
03E378
01FC78
ENDCHAR
STARTCHAR 0917
ENCODING 2327
SWIDTH 651 0
DWIDTH 19 0
BBX 21 16 -1 0
BITMAP
FFFFF8
03C3C0
01E3C0
00F3C0
00F3C0
00F3C0
3CF3C0
3CF3C0
3CF3C0
31E3C0
11C3C0
0F03C0
0003C0
0003C0
0003C0
0003C0
ENDCHAR
STARTCHAR 0918
ENCODING 2328
SWIDTH 617 0
DWIDTH 18 0
BBX 20 16 -1 0
BITMAP
FFFFF0
1E0780
1E0780
1E0780
1E0780
0F0780
03C780
0F0780
1E0780
3E0780
3E0780
3E0780
1E0F80
1F1780
0FE780
000780
ENDCHAR
STARTCHAR 0919
ENCODING 2329
SWIDTH 548 0
DWIDTH 16 0
BBX 17 16 -1 0
BITMAP
FFFF80
00F000
00F000
07F000
180700
380700
3E0780
3FC700
1FF000
07F800
18F800
3C3800
3C3800
383800
183000
0FC000
ENDCHAR
STARTCHAR 091A
ENCODING 2330
SWIDTH 582 0
DWIDTH 17 0
BBX 19 16 -1 0
BITMAP
FFFFE0
000F00
000F00
3FCF00
0F0F00
1E0F00
1E0F00
3E0F00
3E0F00
3E0F00
1E0F00
1E1F00
0FEF00
07CF00
000F00
000F00
ENDCHAR
STARTCHAR 091B
ENCODING 2331
SWIDTH 651 0
DWIDTH 19 0
BBX 21 15 -1 1
BITMAP
FFFFF8
1F0F00
1E0F00
1E1F80
1E23C0
1E01E0
0781E0
0F01E0
1E01E0
3E01E0
3E01E0
1E01C0
1E03C0
0F0700
00F800
ENDCHAR
STARTCHAR 091C
ENCODING 2332
SWIDTH 685 0
DWIDTH 20 0
BBX 22 16 -1 0
BITMAP
FFFFFC
0001E0
0001E0
07FFE0
01C1E0
00F1E0
00F1E0
0079E0
1879E0
3C79E0
7C79E0
78F1E0
20F1E0
31E1E0
0F81E0
0001E0
ENDCHAR
STARTCHAR 091D
ENCODING 2333
SWIDTH 720 0
DWIDTH 21 0
BBX 23 19 -1 -3
BITMAP
FFFFFE
01F0F0
01F0F0
07F0F0
1800F0
3800F0
3C00F0
3F80F0
1FE0F0
0FF0F0
01FFF0
1878F0
3C38F0
3E38F0
1C30F0
0FC0F0
040000
080000
100000
ENDCHAR
STARTCHAR 091E
ENCODING 2334
SWIDTH 651 0
DWIDTH 19 0
BBX 20 16 -1 0
BITMAP
FFFFF0
000780
000780
1F0780
278780
03C780
03E780
01E780
01FF80
01E780
03E780
43C780
27C780
1F0780
000780
000780
ENDCHAR
STARTCHAR 091F
ENCODING 2335
SWIDTH 480 0
DWIDTH 14 0
BBX 15 16 -1 0
BITMAP
FFFE
00F0
00F0
00F0
03F0
0F00
1E00
1E00
3E00
3C00
3C00
3E00
1E00
1E04
0F08
03F0
ENDCHAR
STARTCHAR 0920
ENCODING 2336
SWIDTH 514 0
DWIDTH 15 0
BBX 17 15 -1 1
BITMAP
FFFF80
01E000
01E000
01E000
063800
0E1C00
1E1E00
3E1E00
3E1E00
3E1E00
3E1E00
1E1E00
1E1C00
063800
01C000
ENDCHAR
STARTCHAR 0921
ENCODING 2337
SWIDTH 445 0
DWIDTH 13 0
BBX 15 16 -1 0
BITMAP
FFFE
00F0
00F0
07F0
1810
3800
3E00
3FC0
1FF0
07F8
00F8
3838
3C38
3838
1830
0FC0
ENDCHAR
STARTCHAR 0922
ENCODING 2338
SWIDTH 514 0
DWIDTH 15 0
BBX 17 16 -1 0
BITMAP
FFFF80
00F000
00F000
00F000
03F000
0F0000
1E0000
1E0000
3E7800
3C9C00
3C1E00
3E1E00
1E1E00
1E1E00
0E1C00
03F000
ENDCHAR
STARTCHAR 0923
ENCODING 2339
SWIDTH 822 0
DWIDTH 24 0
BBX 25 16 -1 0
BITMAP
FFFFFF80
1E1E3E00
1E1E3E00
1E1E3E00
1E1E3E00
1E1E3E00
1E1E3E00
1E1E3E00
1E1E3E00
1E1C3E00
0E383E00
03E03E00
00003E00
00003E00
00003E00
00003E00
ENDCHAR
STARTCHAR 0924
ENCODING 2340
SWIDTH 548 0
DWIDTH 16 0
BBX 18 16 -1 0
BITMAP
FFFFC0
001E00
001E00
001E00
01FE00
071E00
1E1E00
1E1E00
3E1E00
3E1E00
3E1E00
3E1E00
1E1E00
1E1E00
0E1E00
079E00
ENDCHAR
STARTCHAR 0925
ENCODING 2341
SWIDTH 651 0
DWIDTH 19 0
BBX 18 16 1 0
BITMAP
1E3FC0
3F0F00
478F00
438F00
738F00
078F00
0F0F00
FC0F00
F00F00
F01F00
781F00
3C2F00
1FCF00
000F00
000F00
000F00
ENDCHAR
STARTCHAR 0926
ENCODING 2342
SWIDTH 480 0
DWIDTH 14 0
BBX 16 18 -1 -2
BITMAP
FFFF
00F0
00F0
00F0
03F0
0F00
1E00
1E00
3E00
3C00
3C18
3E3C
1E3C
1E3C
0F38
03F0
0018
0006
ENDCHAR
STARTCHAR 0927
ENCODING 2343
SWIDTH 617 0
DWIDTH 18 0
BBX 20 16 -1 0
BITMAP
FFDFF0
1E0780
1E0780
1E0780
1E0780
0F0780
03C780
0F0780
1E0780
3E0780
3E0780
3E0780
1E0F80
1F1780
07E780
000780
ENDCHAR
STARTCHAR 0928
ENCODING 2344
SWIDTH 548 0
DWIDTH 16 0
BBX 18 16 -1 0
BITMAP
FFFFC0
001E00
001E00
001E00
001E00
07FE00
181E00
381E00
3E1E00
3E1E00
3E1E00
1E1E00
001E00
001E00
001E00
001E00
ENDCHAR
STARTCHAR 0929
ENCODING 2345
SWIDTH 548 0
DWIDTH 16 0
BBX 18 17 -1 -1
BITMAP
FFFFC0
001E00
001E00
001E00
001E00
07FE00
181E00
381E00
3E1E00
3E1E00
3E1E00
1C1E00
001E00
0E1E00
1E1E00
1E1E00
0E0000
ENDCHAR
STARTCHAR 092A
ENCODING 2346
SWIDTH 548 0
DWIDTH 16 0
BBX 18 16 -1 0
BITMAP
FFFFC0
3E1E00
3E1E00
3E1E00
3E1E00
3E1E00
3E1E00
1E1E00
1E1E00
1E1E00
0FFE00
079E00
001E00
001E00
001E00
001E00
ENDCHAR
STARTCHAR 092B
ENCODING 2347
SWIDTH 822 0
DWIDTH 24 0
BBX 25 16 -1 0
BITMAP
FFFFFF80
3E1E0000
3E1E2000
3E1EFC00
3E1F3E00
3E1E1E00
3E1E1E00
1E1E1F00
1E1E1F00
1E1E1F00
0FFE1E00
079E1E00
001E3C00
001EF800
001E0000
001E0000
ENDCHAR
STARTCHAR 092C
ENCODING 2348
SWIDTH 548 0
DWIDTH 16 0
BBX 18 16 -1 0
BITMAP
FFFFC0
001E00
001E00
079E00
1F5E00
1E1E00
3F1E00
3C9E00
3C5E00
3C3E00
3E1E00
3E1E00
1F3E00
0FDE00
001E00
001E00
ENDCHAR
STARTCHAR 092D
ENCODING 2349
SWIDTH 617 0
DWIDTH 18 0
BBX 18 16 1 0
BITMAP
787FC0
9E1E00
9E1E00
0E1E00
0F1E00
0F1E00
3FFE00
4F1E00
8F1E00
9E1E00
9E1E00
FC1E00
781E00
001E00
001E00
001E00
ENDCHAR
STARTCHAR 092E
ENCODING 2350
SWIDTH 651 0
DWIDTH 19 0
BBX 20 16 -1 0
BITMAP
FFFFF0
03C780
03C780
03C780
03C780
03C780
0FFF80
17C780
278780
278780
278780
3F0780
1E0780
000780
000780
000780
ENDCHAR
STARTCHAR 092F
ENCODING 2351
SWIDTH 651 0
DWIDTH 19 0
BBX 20 16 -1 0
BITMAP
FFFFF0
038780
03C780
03C780
03C780
03C780
0F8780
3C0780
3C0780
3C0780
1E0780
0F0F80
07F780
000780
000780
000780
ENDCHAR
STARTCHAR 0930
ENCODING 2352
SWIDTH 377 0
DWIDTH 11 0
BBX 12 16 -1 0
BITMAP
FFF0
0780
03C0
03C0
03C0
03C0
03C0
0780
7E00
3C00
1E00
1F00
0F00
0F80
0780
03E0
ENDCHAR
STARTCHAR 0931
ENCODING 2353
SWIDTH 377 0
DWIDTH 11 0
BBX 12 20 -1 -4
BITMAP
FFF0
0780
03C0
03C0
03C0
03C0
03C0
0780
7E00
3C00
1E00
1F00
0F00
0F80
0780
03E0
3000
7800
7800
3000
ENDCHAR
STARTCHAR 0932
ENCODING 2354
SWIDTH 720 0
DWIDTH 21 0
BBX 23 15 -1 1
BITMAP
FFFFFE
000780
000780
038780
0E6CE0
1E7C70
3C3C78
3C7878
3C3878
3C3878
3C3878
3C0078
1C0070
1E00F0
07C7C0
ENDCHAR
STARTCHAR 0933
ENCODING 2355
SWIDTH 754 0
DWIDTH 22 0
BBX 24 16 -1 0
BITMAP
FFFFFF
0003C0
0003C0
0003C0
07C3E0
0E2E70
1E3E78
3E1E3C
3C3E3C
3C3C3C
3C3C3C
3C7C7C
3C787C
1C7878
0EF470
07C3E0
ENDCHAR
STARTCHAR 0934
ENCODING 2356
SWIDTH 754 0
DWIDTH 22 0
BBX 24 21 -1 -5
BITMAP
FFFFFF
0003C0
0003C0
0003C0
07C3E0
0E2E70
1E3E78
3E1E3C
3C3E3C
3C3C3C
3C3C3C
3C7C7C
3C787C
1C7878
0EF470
07C3E0
000000
070000
078000
070000
070000
ENDCHAR
STARTCHAR 0935
ENCODING 2357
SWIDTH 548 0
DWIDTH 16 0
BBX 18 16 -1 0
BITMAP
FFFFC0
001E00
001E00
079E00
1F5E00
1E1E00
3E1E00
3C1E00
3C1E00
3C1E00
3E1E00
3E1E00
1F3E00
0FDE00
001E00
001E00
ENDCHAR
STARTCHAR 0936
ENCODING 2358
SWIDTH 720 0
DWIDTH 21 0
BBX 22 16 -1 0
BITMAP
FFFFFC
18F1E0
1EF1E0
1E71E0
0E79E0
00F1E0
00F1E0
03E1E0
3F01E0
3E01E0
1F01E0
0F01E0
0F81E0
0781E0
07C1E0
01F9E0
ENDCHAR
STARTCHAR 0937
ENCODING 2359
SWIDTH 548 0
DWIDTH 16 0
BBX 18 16 -1 0
BITMAP
FFFFC0
3E1E00
3E1E00
3F1E00
3E9E00
3E5E00
3E3E00
1E1E00
1E1E00
1E1E00
0FFE00
079E00
001E00
001E00
001E00
001E00
ENDCHAR
STARTCHAR 0938
ENCODING 2360
SWIDTH 685 0
DWIDTH 20 0
BBX 21 16 -1 0
BITMAP
FFFFF8
0783C0
03C3C0
03C3C0
03C3C0
03C3C0
03C3C0
0783C0
7FFFC0
3C03C0
1E03C0
1F03C0
0F03C0
0F83C0
0783C0
03F3C0
ENDCHAR
STARTCHAR 0939
ENCODING 2361
SWIDTH 514 0
DWIDTH 15 0
BBX 16 16 -1 0
BITMAP
FFFF
0078
0078
0FF8
1E00
3C00
1E00
0FF0
0E3C
1C1C
3C1C
3C3C
3CF8
1E00
1F04
07F8
ENDCHAR
STARTCHAR 093C
ENCODING 2364
SWIDTH 0 0
DWIDTH 0 0
BBX 4 4 -10 -4
BITMAP
60
F0
F0
70
ENDCHAR
STARTCHAR 093D
ENCODING 2365
SWIDTH 480 0
DWIDTH 14 0
BBX 12 16 1 0
BITMAP
3FF0
7000
F000
F000
FC00
7E00
7F00
3FC0
0FC0
03E0
01E0
00E0
00E0
80E0
40C0
3F00
ENDCHAR
STARTCHAR 093E
ENCODING 2366
SWIDTH 308 0
DWIDTH 9 0
BBX 10 16 -1 0
BITMAP
FFC0
1E00
1E00
1E00
1E00
1E00
1E00
1E00
1E00
1E00
1E00
1E00
1E00
1E00
1E00
1E00
ENDCHAR
STARTCHAR 093F
ENCODING 2367
SWIDTH 308 0
DWIDTH 9 0
BBX 20 24 -1 0
BITMAP
000060
078020
1FF830
1FFFF0
107FE0
1007C0
100000
180000
FFC000
1E0000
1E0000
1E0000
1E0000
1E0000
1E0000
1E0000
1E0000
1E0000
1E0000
1E0000
1E0000
1E0000
1E0000
1E0000
ENDCHAR
STARTCHAR 0940
ENCODING 2368
SWIDTH 308 0
DWIDTH 9 0
BBX 12 22 -3 0
BITMAP
7C00
8F00
8780
8780
0780
0780
3FF0
0780
0780
0780
0780
0780
0780
0780
0780
0780
0780
0780
0780
0780
0780
0780
ENDCHAR
STARTCHAR 0941
ENCODING 2369
SWIDTH 0 0
DWIDTH 0 0
BBX 11 7 -11 -6
BITMAP
0F80
93C0
81C0
81E0
41C0
73C0
1F00
ENDCHAR
STARTCHAR 0942
ENCODING 2370
SWIDTH 0 0
DWIDTH 0 0
BBX 11 7 -9 -6
BITMAP
3E00
7980
F040
F040
F020
7120
3C20
ENDCHAR
STARTCHAR 0943
ENCODING 2371
SWIDTH 0 0
DWIDTH 0 0
BBX 10 7 -11 -6
BITMAP
0700
7C00
7800
F000
F040
78C0
3F00
ENDCHAR
STARTCHAR 0944
ENCODING 2372
SWIDTH 0 0
DWIDTH 0 0
BBX 9 13 -10 -12
BITMAP
1E00
7800
F000
F000
F000
7800
1E00
F000
F000
F000
F000
F980
7E00
ENDCHAR
STARTCHAR 0945
ENCODING 2373
SWIDTH 0 0
DWIDTH 0 0
BBX 10 5 -9 18
BITMAP
8040
80C0
FF80
7F80
3E00
ENDCHAR
STARTCHAR 0946
ENCODING 2374
SWIDTH 0 0
DWIDTH 0 0
BBX 12 9 -15 15
BITMAP
7000
8000
8000
FFE0
7FF0
3FF0
0010
0010
0010
ENDCHAR
STARTCHAR 0947
ENCODING 2375
SWIDTH 0 0
DWIDTH 0 0
BBX 8 6 -12 17
BITMAP
60
F0
78
3C
06
01
ENDCHAR
STARTCHAR 0948
ENCODING 2376
SWIDTH 0 0
DWIDTH 0 0
BBX 12 7 -15 16
BITMAP
0300
0780
73C0
F9C0
7EE0
0F20
00D0
ENDCHAR
STARTCHAR 0949
ENCODING 2377
SWIDTH 308 0
DWIDTH 9 0
BBX 10 23 -1 0
BITMAP
8040
4040
7FC0
3F80
1F00
0000
0000
FFC0
1E00
1E00
1E00
1E00
1E00
1E00
1E00
1E00
1E00
1E00
1E00
1E00
1E00
1E00
1E00
ENDCHAR
STARTCHAR 094A
ENCODING 2378
SWIDTH 308 0
DWIDTH 9 0
BBX 15 24 -6 0
BITMAP
7000
8000
8000
FFC0
FFE0
3FF0
0010
0010
07FE
00F0
00F0
00F0
00F0
00F0
00F0
00F0
00F0
00F0
00F0
00F0
00F0
00F0
00F0
00F0
ENDCHAR
STARTCHAR 094B
ENCODING 2379
SWIDTH 308 0
DWIDTH 9 0
BBX 12 23 -3 0
BITMAP
4000
E000
F000
7800
1C00
0300
0000
3FF0
0780
0780
0780
0780
0780
0780
0780
0780
0780
0780
0780
0780
0780
0780
0780
ENDCHAR
STARTCHAR 094C
ENCODING 2380
SWIDTH 308 0
DWIDTH 9 0
BBX 14 24 -5 0
BITMAP
0400
0F00
8700
F380
F9C0
7EC0
0720
0080
0FFC
01E0
01E0
01E0
01E0
01E0
01E0
01E0
01E0
01E0
01E0
01E0
01E0
01E0
01E0
01E0
ENDCHAR
STARTCHAR 094D
ENCODING 2381
SWIDTH 0 0
DWIDTH 0 0
BBX 8 6 -5 -6
BITMAP
80
40
70
78
3F
1C
ENDCHAR
STARTCHAR 0950
ENCODING 2384
SWIDTH 960 0
DWIDTH 28 0
BBX 27 23 0 0
BITMAP
00018000
0003C000
0003C000
0011C800
00100800
00181800
000FF000
1F87F000
23C18000
01E00000
01E00F00
01E03B80
038071C0
1E00F1E0
03C0F1E0
01E1F1E0
21F1E1E0
F0F1E1E0
F8F3E1E0
F1F3E3C0
C1F793C0
41CF0F00
3F800000
ENDCHAR
STARTCHAR 0951
ENCODING 2385
SWIDTH 0 0
DWIDTH 0 0
BBX 2 7 -6 14
BITMAP
40
C0
40
40
40
40
40
ENDCHAR
STARTCHAR 0952
ENCODING 2386
SWIDTH 0 0
DWIDTH 0 0
BBX 13 1 -15 -4
BITMAP
FFF8
ENDCHAR
STARTCHAR 0953
ENCODING 2387
SWIDTH 0 0
DWIDTH 0 0
BBX 6 5 -6 17
BITMAP
E0
E0
F0
38
0C
ENDCHAR
STARTCHAR 0954
ENCODING 2388
SWIDTH 0 0
DWIDTH 0 0
BBX 6 5 -6 17
BITMAP
1C
1C
3C
30
C0
ENDCHAR
STARTCHAR 0958
ENCODING 2392
SWIDTH 822 0
DWIDTH 24 0
BBX 25 20 -1 -4
BITMAP
FFFFFF80
001E0000
001E0000
07DEF800
1F1FFC00
1E1E1E00
3C1E1E00
3C1E1E00
3C1E1F00
3C1E1F00
3E1E1E00
1E3E1E00
1FDE3C00
079EF800
001E0000
001E0000
0E000000
1E000000
1E000000
0E000000
ENDCHAR
STARTCHAR 0959
ENCODING 2393
SWIDTH 788 0
DWIDTH 23 0
BBX 23 20 0 -4
BITMAP
FFFFFE
0F00F0
0780F0
078FF0
07BCF0
07B870
0F3870
3C7870
783870
3C3C70
3E1F70
1E04F0
1F00F0
0F81F0
07E6F0
03F8F0
180000
3C0000
3C0000
180000
ENDCHAR
STARTCHAR 095A
ENCODING 2394
SWIDTH 651 0
DWIDTH 19 0
BBX 21 19 -1 -3
BITMAP
FFFFF8
03C3C0
01E3C0
00F3C0
00F3C0
00F3C0
3CF3C0
3CF3C0
3CF3C0
31E3C0
11C3C0
0F03C0
0003C0
0003C0
0003C0
0303C0
078000
078000
030000
ENDCHAR
STARTCHAR 095B
ENCODING 2395
SWIDTH 685 0
DWIDTH 20 0
BBX 22 21 -1 -5
BITMAP
FFFFFC
0001E0
0001E0
07FFE0
01C1E0
00F1E0
00F1E0
0079E0
1879E0
3C79E0
7C79E0
78F1E0
20F1E0
31E1E0
0F81E0
0001E0
000000
070000
078000
078000
070000
ENDCHAR
STARTCHAR 095C
ENCODING 2396
SWIDTH 445 0
DWIDTH 13 0
BBX 15 21 -1 -5
BITMAP
FFFE
00F0
00F0
07F0
1810
3800
3E00
3FC0
1FF0
07F8
00F8
3838
3C38
3838
1830
0FC0
0000
0300
0780
0780
0300
ENDCHAR
STARTCHAR 095D
ENCODING 2397
SWIDTH 514 0
DWIDTH 15 0
BBX 17 22 -1 -6
BITMAP
FFFF80
00F000
00F000
00F000
03F000
0F0000
1E0000
1E0000
3E7800
3C9C00
3C1E00
3E1E00
1E1E00
1E1E00
0E1C00
03F000
000000
000000
00C000
01E000
01E000
00C000
ENDCHAR
STARTCHAR 095E
ENCODING 2398
SWIDTH 822 0
DWIDTH 24 0
BBX 24 18 0 -2
BITMAP
FFFFFF
3C3C00
3C3C40
3C3DF8
3C3E7C
3C3C3C
3C3C3E
3C3C1E
3C3C1E
3C3C1E
1FFC3E
0F3C3C
003C7C
003DF0
0E3C00
0E3C00
1E0000
0E0000
ENDCHAR
STARTCHAR 095F
ENCODING 2399
SWIDTH 651 0
DWIDTH 19 0
BBX 20 20 -1 -4
BITMAP
FFFFF0
038780
03C780
03C780
03C780
03C780
0F8780
3C0780
3C0780
3C0780
1E0780
0F0F80
07F780
000780
000780
000780
038000
078000
038000
038000
ENDCHAR
STARTCHAR 0960
ENCODING 2400
SWIDTH 891 0
DWIDTH 26 0
BBX 27 16 -1 0
BITMAP
FFFFFFE0
001E0000
001E0F80
1E1E1C40
3F9E3C00
4F9E3C00
07DE1E00
03DFFF80
01FE1E00
01DE3C00
019E3C00
021E3C00
041E3E60
181E1F80
001E0000
001E0000
ENDCHAR
STARTCHAR 0961
ENCODING 2401
SWIDTH 754 0
DWIDTH 22 0
BBX 23 21 -1 -5
BITMAP
FFFFFE
000780
000780
03C7C0
0E6CF0
1E3C70
1E3C78
3E3C78
3C3C78
3C3DE4
3C3DC0
1E01C0
1E01E0
0E00F8
07C0F0
0001E0
0003C0
0003C0
0003E0
0001E2
0000FC
ENDCHAR
STARTCHAR 0964
ENCODING 2404
SWIDTH 308 0
DWIDTH 9 0
BBX 4 16 2 0
BITMAP
F0
F0
F0
F0
F0
F0
F0
F0
F0
F0
F0
F0
F0
F0
F0
F0
ENDCHAR
STARTCHAR 0965
ENCODING 2405
SWIDTH 582 0
DWIDTH 17 0
BBX 11 16 4 0
BITMAP
F1E0
F1E0
F1E0
F1E0
F1E0
F1E0
F1E0
F1E0
F1E0
F1E0
F1E0
F1E0
F1E0
F1E0
F1E0
F1E0
ENDCHAR
STARTCHAR 0966
ENCODING 2406
SWIDTH 582 0
DWIDTH 17 0
BBX 15 17 1 -1
BITMAP
07C0
1C70
3878
7838
783C
783C
F83C
F83C
F83E
F83C
F83C
783C
783C
7838
3878
1C70
07C0
ENDCHAR
STARTCHAR 0967
ENCODING 2407
SWIDTH 308 0
DWIDTH 9 0
BBX 9 17 0 0
BITMAP
0200
0E00
3E00
DE00
1E00
1E00
1E00
1E00
1E00
1E00
1E00
1E00
1E00
1E00
1E00
1E00
7F80
ENDCHAR
STARTCHAR 0968
ENCODING 2408
SWIDTH 514 0
DWIDTH 15 0
BBX 13 16 1 0
BITMAP
3F80
41E0
C1E0
F0F0
F0F0
71F0
01E0
03C0
0700
0C00
1008
2018
7FF8
FFF0
8FF0
81E0
ENDCHAR
STARTCHAR 0969
ENCODING 2409
SWIDTH 480 0
DWIDTH 14 0
BBX 12 17 1 -1
BITMAP
3F80
43C0
C1E0
F1E0
F1E0
61E0
03C0
1F00
01C0
00F0
60F0
F0F0
F0F0
F0F0
C1E0
43C0
3F00
ENDCHAR
STARTCHAR 096A
ENCODING 2410
SWIDTH 445 0
DWIDTH 13 0
BBX 13 17 0 0
BITMAP
00C0
01C0
01C0
03C0
07C0
07C0
0BC0
13C0
13C0
23C0
43C0
43C8
FFF8
03C8
03C8
03C0
07F0
ENDCHAR
STARTCHAR 096B
ENCODING 2411
SWIDTH 480 0
DWIDTH 14 0
BBX 13 18 0 0
BITMAP
0010
1030
1FF0
3FF0
2FE0
21C0
2000
2000
3FC0
21E0
00F0
00F8
7878
F878
F0F0
40F0
61E0
1F80
ENDCHAR
STARTCHAR 096C
ENCODING 2412
SWIDTH 514 0
DWIDTH 15 0
BBX 13 17 1 -1
BITMAP
0FC0
1C30
3830
78F8
70F0
F0F0
F000
F7C0
F8F0
F078
F078
F078
F078
7078
3870
18E0
0780
ENDCHAR
STARTCHAR 096D
ENCODING 2413
SWIDTH 445 0
DWIDTH 13 0
BBX 13 17 0 -1
BITMAP
3E08
7FD0
7FF0
FFF0
8120
8020
0040
0080
0180
0300
0700
0700
0F00
0F80
0F80
0F80
0700
ENDCHAR
STARTCHAR 096E
ENCODING 2414
SWIDTH 514 0
DWIDTH 15 0
BBX 13 17 1 -1
BITMAP
0F80
3060
7070
7070
7870
7C60
3EC0
1F80
0FE0
37F0
71F8
E0F8
E078
E038
6030
3060
0F80
ENDCHAR
STARTCHAR 096F
ENCODING 2415
SWIDTH 514 0
DWIDTH 15 0
BBX 13 17 1 -1
BITMAP
1F80
78E0
70F0
F070
F078
F078
F078
F078
78F8
1F78
7078
F078
F8F0
F0F0
40E0
61C0
1F00
ENDCHAR
STARTCHAR 0970
ENCODING 2416
SWIDTH 514 0
DWIDTH 15 0
BBX 13 12 1 2
BITMAP
0700
38E0
78F0
70F0
F078
F078
F078
F0F8
70F0
78F0
38E0
0F00
ENDCHAR
STARTCHAR 0972
ENCODING 2418
SWIDTH 720 0
DWIDTH 21 0
BBX 21 23 0 0
BITMAP
001008
000808
000FF8
0007F0
0003E0
000000
000000
0FC7F8
11E3C0
01E3C0
01E3C0
03C3C0
0F03C0
01E3C0
01E3C0
70F3C0
F8FFC0
F8F3C0
F0F3C0
41E3C0
43C3C0
3F03C0
0003C0
ENDCHAR
STARTCHAR 097D
ENCODING 2429
SWIDTH 445 0
DWIDTH 13 0
BBX 11 17 1 0
BITMAP
3E00
4380
C3C0
E1E0
E1E0
E1E0
01C0
0380
0200
0400
0400
0800
0800
0800
0800
0800
0800
ENDCHAR
STARTCHAR 1E80
ENCODING 7808
SWIDTH 925 0
DWIDTH 27 0
BBX 26 23 0 0
BITMAP
00180000
003C0000
001C0000
000C0000
00020000
00000000
FFBFC7C0
3F0F8100
3F0FC100
1F8FC100
1F87C200
0F87E200
0FC7E200
07CBF400
07E9F400
07F1F400
03F1F800
03E0F800
01E0F000
01E07000
00C07000
00C02000
00C02000
ENDCHAR
STARTCHAR 1E81
ENCODING 7809
SWIDTH 822 0
DWIDTH 24 0
BBX 24 20 0 0
BITMAP
001000
003800
003C00
000C00
000400
000000
FF3F9F
3E1F04
3E1F04
1F1F88
1F1F88
0F97D0
0FA7D0
07E3D0
07C3E0
03C3E0
03C1C0
0381C0
0180C0
010080
ENDCHAR
STARTCHAR 1E82
ENCODING 7810
SWIDTH 925 0
DWIDTH 27 0
BBX 26 22 0 0
BITMAP
00038000
00038000
00070000
00040000
00000000
FFBFC7C0
3F0F8100
3F0FC100
1F8FC100
1F87C200
0F87E200
0FC7E200
07CBF400
07E9F400
07F1F400
03F1F800
03E0F800
01E0F000
01E07000
00C07000
00C02000
00C02000
ENDCHAR
STARTCHAR 1E83
ENCODING 7811
SWIDTH 822 0
DWIDTH 24 0
BBX 24 20 0 0
BITMAP
000200
000700
000F00
000C00
000800
000000
FF3F9F
3E1F04
3E1F04
1F1F88
1F1F88
0F97D0
0FA7D0
07E3D0
07C3E0
03C3E0
03C1C0
0381C0
0180C0
010080
ENDCHAR
STARTCHAR 1E84
ENCODING 7812
SWIDTH 925 0
DWIDTH 27 0
BBX 26 22 0 0
BITMAP
0039C000
0039C000
0039C000
00108000
00000000
FFBFC7C0
3F0F8100
3F0FC100
1F8FC100
1F87C200
0F87E200
0FC7E200
07CBF400
07E9F400
07F1F400
03F1F800
03E0F800
01E0F000
01E07000
00C07000
00C02000
00C02000
ENDCHAR
STARTCHAR 1E85
ENCODING 7813
SWIDTH 822 0
DWIDTH 24 0
BBX 24 19 0 0
BITMAP
006300
00F780
00F780
006300
000000
FF3F9F
3E1F04
3E1F04
1F1F88
1F1F88
0F97D0
0FA7D0
07E3D0
07C3E0
03C3E0
03C1C0
0381C0
0180C0
010080
ENDCHAR
STARTCHAR 1EF2
ENCODING 7922
SWIDTH 617 0
DWIDTH 18 0
BBX 18 23 0 0
BITMAP
008000
01C000
01C000
00E000
002000
000000
FF0FC0
3E0200
1F0200
1F8400
0F8400
0FC800
07C800
03F000
03F000
01E000
01E000
01E000
01E000
01E000
01E000
01E000
03F800
ENDCHAR
STARTCHAR 1EF3
ENCODING 7923
SWIDTH 548 0
DWIDTH 16 0
BBX 16 26 0 -6
BITMAP
0300
0380
0380
0180
0040
0000
FF1F
3E04
3E04
1F08
1F08
0F90
0F90
07E0
07E0
03C0
03C0
01C0
0180
0080
0100
2100
F900
FE00
FC00
7800
ENDCHAR
STARTCHAR 200B
ENCODING 8203
SWIDTH 0 0
DWIDTH 0 0
BBX 0 0 0 0
BITMAP
ENDCHAR
STARTCHAR 200C
ENCODING 8204
SWIDTH 0 0
DWIDTH 0 0
BBX 2 31 -1 -7
BITMAP
C0
C0
C0
C0
C0
C0
C0
C0
C0
C0
C0
C0
C0
C0
C0
C0
C0
C0
C0
C0
C0
C0
C0
C0
C0
C0
C0
C0
C0
C0
C0
ENDCHAR
STARTCHAR 200D
ENCODING 8205
SWIDTH 0 0
DWIDTH 0 0
BBX 8 31 -4 -7
BITMAP
C3
66
3C
18
3C
7E
DB
1A
18
18
18
18
18
18
18
18
18
18
18
18
18
18
18
18
18
18
18
18
18
18
18
ENDCHAR
STARTCHAR 2013
ENCODING 8211
SWIDTH 514 0
DWIDTH 15 0
BBX 13 1 1 6
BITMAP
FFF8
ENDCHAR
STARTCHAR 2014
ENCODING 8212
SWIDTH 822 0
DWIDTH 24 0
BBX 22 1 1 6
BITMAP
FFFFFC
ENDCHAR
STARTCHAR 2018
ENCODING 8216
SWIDTH 205 0
DWIDTH 6 0
BBX 5 8 0 13
BITMAP
18
20
40
40
F8
F8
78
78
ENDCHAR
STARTCHAR 2019
ENCODING 8217
SWIDTH 205 0
DWIDTH 6 0
BBX 5 8 0 13
BITMAP
70
F8
F8
78
08
10
10
60
ENDCHAR
STARTCHAR 201A
ENCODING 8218
SWIDTH 205 0
DWIDTH 6 0
BBX 5 8 0 -4
BITMAP
70
F8
F8
78
08
10
30
40
ENDCHAR
STARTCHAR 201C
ENCODING 8220
SWIDTH 445 0
DWIDTH 13 0
BBX 11 8 1 13
BITMAP
1040
6080
8100
8300
F3C0
FBE0
FBE0
F1C0
ENDCHAR
STARTCHAR 201D
ENCODING 8221
SWIDTH 445 0
DWIDTH 13 0
BBX 11 8 1 13
BITMAP
F1C0
F3E0
FBE0
FBE0
1060
1040
2080
C100
ENDCHAR
STARTCHAR 201E
ENCODING 8222
SWIDTH 445 0
DWIDTH 13 0
BBX 11 8 1 -4
BITMAP
F1C0
F3E0
FBE0
F9E0
1060
1040
2080
C100
ENDCHAR
STARTCHAR 2020
ENCODING 8224
SWIDTH 445 0
DWIDTH 13 0
BBX 13 25 0 -5
BITMAP
0700
0700
0700
0700
0600
7270
FFF8
FAF0
0200
0200
0600
0700
0F80
0F80
0700
0700
0700
0600
0200
0200
0200
0200
0200
0200
0200
ENDCHAR
STARTCHAR 2021
ENCODING 8225
SWIDTH 445 0
DWIDTH 13 0
BBX 13 24 0 -4
BITMAP
0700
0700
0700
0700
0600
7270
FFF8
FAF0
0200
0200
0700
0F00
0F80
0700
0200
0200
FAF0
FFF8
7270
0600
0700
0700
0700
0700
ENDCHAR
STARTCHAR 2022
ENCODING 8226
SWIDTH 308 0
DWIDTH 9 0
BBX 7 8 1 6
BITMAP
38
7E
FE
FE
FE
FE
7E
38
ENDCHAR
STARTCHAR 2026
ENCODING 8230
SWIDTH 822 0
DWIDTH 24 0
BBX 21 6 1 0
BITMAP
7070E0
F8F9F0
FCF9F8
FDF9F8
F8F9F0
7070F0
ENDCHAR
STARTCHAR 2030
ENCODING 8240
SWIDTH 925 0
DWIDTH 27 0
BBX 25 17 1 0
BITMAP
3C080000
67100000
E3100000
E3200000
E3200000
E7400000
66400000
3C800000
00800000
013C1E00
01663300
02E77180
02E77180
04E77180
08E77380
08663380
103C1E00
ENDCHAR
STARTCHAR 2039
ENCODING 8249
SWIDTH 274 0
DWIDTH 8 0
BBX 5 9 2 2
BITMAP
08
10
30
E0
E0
60
30
18
08
ENDCHAR
STARTCHAR 203A
ENCODING 8250
SWIDTH 274 0
DWIDTH 8 0
BBX 6 9 1 2
BITMAP
80
40
70
38
3C
38
60
40
80
ENDCHAR
STARTCHAR 2044
ENCODING 8260
SWIDTH 68 0
DWIDTH 2 0
BBX 10 17 -4 0
BITMAP
00C0
0080
0100
0100
0200
0200
0400
0400
0800
0800
1000
1000
2000
2000
4000
4000
8000
ENDCHAR
STARTCHAR 2070
ENCODING 8304
SWIDTH 274 0
DWIDTH 8 0
BBX 6 7 1 10
BITMAP
78
48
CC
CC
CC
48
30
ENDCHAR
STARTCHAR 20AC
ENCODING 8364
SWIDTH 582 0
DWIDTH 17 0
BBX 15 17 1 0
BITMAP
01F8
0706
1E0E
3E0E
3E06
FFE0
7C00
7C00
7C00
7C00
FFE0
3C00
3E0E
3E0E
1F0E
0706
01F8
ENDCHAR
STARTCHAR 20B9
ENCODING 8377
SWIDTH 445 0
DWIDTH 13 0
BBX 11 16 1 0
BITMAP
FFE0
0F00
0780
FFE0
0780
0780
0700
0E00
F800
7800
3C00
3E00
1E00
1E00
0F00
07E0
ENDCHAR
STARTCHAR 2113
ENCODING 8467
SWIDTH 445 0
DWIDTH 13 0
BBX 11 16 1 0
BITMAP
0780
1CC0
3CE0
3CE0
3CE0
7CE0
7CE0
7CE0
7DC0
7D80
7F00
7C00
FC00
3C00
3C00
1FC0
ENDCHAR
STARTCHAR 2122
ENCODING 8482
SWIDTH 754 0
DWIDTH 22 0
BBX 20 9 1 11
BITMAP
FF70F0
9938E0
995960
185960
184E60
184E60
184C60
184460
3C64F0
ENDCHAR
STARTCHAR 2126
ENCODING 8486
SWIDTH 514 0
DWIDTH 15 0
BBX 17 16 0 0
BITMAP
03E000
0E3800
3C1C00
3C1E00
7C1E00
7C1F00
7C1F00
7C1F00
7C1F00
3C1E00
3C1E00
9E1C80
877880
FF7F80
FF7F80
FF7F80
ENDCHAR
STARTCHAR 212E
ENCODING 8494
SWIDTH 514 0
DWIDTH 15 0
BBX 0 0 0 0
BITMAP
ENDCHAR
STARTCHAR 2202
ENCODING 8706
SWIDTH 582 0
DWIDTH 17 0
BBX 15 21 1 0
BITMAP
1C00
0380
01C0
00E0
0070
0078
003C
03BC
1C3E
783E
783E
F81E
F81E
F81E
F83E
F83E
F83E
783C
783C
1C78
07C0
ENDCHAR
STARTCHAR 2206
ENCODING 8710
SWIDTH 548 0
DWIDTH 16 0
BBX 15 16 0 0
BITMAP
0100
0180
0380
03C0
07C0
07E0
0BE0
09E0
11F0
10F0
10F8
2078
207C
403C
403E
FFFE
ENDCHAR
STARTCHAR 220F
ENCODING 8719
SWIDTH 514 0
DWIDTH 15 0
BBX 17 16 1 0
BITMAP
FFFF80
3C1E00
3C1E00
3C1E00
3C1E00
3C1E00
3C1E00
3C1E00
3C1E00
3C1E00
3C1E00
3C1E00
3C1E00
3C1E00
3C1E00
FE7F80
ENDCHAR
STARTCHAR 2211
ENCODING 8721
SWIDTH 514 0
DWIDTH 15 0
BBX 13 16 0 0
BITMAP
FFF8
7C18
3E08
3E08
1F08
0F80
07C0
0380
0300
0208
0408
0808
1078
3FF8
7FF8
FFF8
ENDCHAR
STARTCHAR 2212
ENCODING 8722
SWIDTH 514 0
DWIDTH 15 0
BBX 12 1 1 6
BITMAP
FFF0
ENDCHAR
STARTCHAR 221A
ENCODING 8730
SWIDTH 582 0
DWIDTH 17 0
BBX 14 16 1 0
BITMAP
00FC
0100
0100
0100
0200
0200
0200
0200
8400
4400
4400
4400
2800
2800
1800
1000
ENDCHAR
STARTCHAR 221E
ENCODING 8734
SWIDTH 754 0
DWIDTH 22 0
BBX 20 12 1 0
BITMAP
1F0F80
38B9C0
78F9E0
F878F0
F0F8F0
F0F0F0
F0F0F0
F1F1F0
F1E1F0
71E1E0
3BD1C0
1F0F80
ENDCHAR
STARTCHAR 2248
ENCODING 8776
SWIDTH 445 0
DWIDTH 13 0
BBX 12 7 1 4
BITMAP
3000
CE10
00E0
0000
7800
8730
00C0
ENDCHAR
STARTCHAR 2260
ENCODING 8800
SWIDTH 514 0
DWIDTH 15 0
BBX 12 9 1 2
BITMAP
0040
0040
FFF0
0100
0200
0400
FFF0
1000
2000
ENDCHAR
STARTCHAR 2264
ENCODING 8804
SWIDTH 480 0
DWIDTH 14 0
BBX 12 13 1 0
BITMAP
0010
00E0
0700
1800
E000
6000
1C00
0380
0070
0000
0000
0000
FFF0
ENDCHAR
STARTCHAR 2265
ENCODING 8805
SWIDTH 480 0
DWIDTH 14 0
BBX 12 13 1 0
BITMAP
8000
7000
0E00
0180
0070
0060
0380
1C00
E000
0000
0000
0000
FFF0
ENDCHAR
STARTCHAR 25CA
ENCODING 9674
SWIDTH 411 0
DWIDTH 12 0
BBX 10 16 1 0
BITMAP
0800
0C00
0C00
1200
2100
2100
4080
4080
8040
4080
2100
2100
1200
1200
0C00
0400
ENDCHAR
STARTCHAR 25CC
ENCODING 9676
SWIDTH 651 0
DWIDTH 19 0
BBX 17 16 1 1
BITMAP
01B000
1BB800
1D1600
080600
600200
600100
400380
400180
E00000
600100
000380
300300
300C00
164C00
06E400
026000
ENDCHAR
STARTCHAR F6C3
ENCODING 63171
SWIDTH 548 0
DWIDTH 16 0
BBX 4 6 6 -7
BITMAP
60
F0
70
10
20
40
ENDCHAR
STARTCHAR FB01
ENCODING 64257
SWIDTH 617 0
DWIDTH 18 0
BBX 17 21 1 0
BITMAP
03F000
0E1C00
1C1E00
3C1E00
3C1E00
3C0800
3C0000
FFFE00
3C1E00
3C1E00
3C1E00
3C1E00
3C1E00
3C1E00
3C1E00
3C1E00
3C1E00
3C1E00
3C1E00
3C1E00
FE7F80
ENDCHAR
STARTCHAR FB02
ENCODING 64258
SWIDTH 617 0
DWIDTH 18 0
BBX 17 21 1 1
BITMAP
03FC00
0E3E00
1C1E00
3C1E00
3C1E00
3C1E00
3C1E00
FFDE00
3C1E00
3C1E00
3C1E00
3C1E00
3C1E00
3C1E00
3C1E00
3C1E00
3C1E00
3C1E00
3C1E00
3C1E00
FE7F80
ENDCHAR
ENDFONT
